<?xml version="1.0" encoding="utf-8"?>
<!-- Generator: Adobe Illustrator 19.0.0, SVG Export Plug-In . SVG Version: 6.00 Build 0)  -->
<svg version="1.1" id="Layer_1" xmlns="http://www.w3.org/2000/svg" xmlns:xlink="http://www.w3.org/1999/xlink" x="0px" y="0px"
	 viewBox="0 0 500 500" style="enable-background:new 0 0 500 500;" xml:space="preserve">
<style type="text/css">
	.st0{fill:#F7DE9F;}
	.st1{fill:#F9CE5C;}
	.st2{fill:#D8A016;}
	.st3{fill:#9F6B08;}
	.st4{fill:#5C4B21;}
	.st5{fill:#282928;}
	.st6{fill:#040404;}
</style>
<g id="g3854" transform="translate(-2.3121387,3.8535645)">
	<path id="path3040" class="st0" d="M242.7,428.4c-5.2-2.9-20.1-14.4-32-24.6c-19.7-16.9-36.9-35.6-52.3-56.6
		c-33.2-45.2-53.7-97.8-62.7-160.6c-4.3-30-5.9-71.8-3.2-81.2c1.7-5.9,5.6-11.4,10.6-14.9c5.4-3.8,22.5-10.5,37.8-14.9
		c32.6-9.4,68.5-13.9,111.2-13.9c54.4,0,98.9,7.2,136.5,22.3c13.4,5.4,18.4,9.2,22.2,17.2l2.5,5.3l-0.1,23.1
		c-0.2,64.1-14.6,126.5-41,176.8c-6.7,12.8-22.6,37.6-30.5,47.6c-14.6,18.4-31.4,36-48.1,50.4c-11.3,9.7-28,22.4-32.6,24.7
		C255.3,432,248.6,431.8,242.7,428.4L242.7,428.4z M254,426.8c-0.9-0.2-2.3-0.2-3.2,0c-0.9,0.2-0.2,0.4,1.6,0.4
		C254.1,427.2,254.8,427,254,426.8z M217.9,404c0-0.2-0.7-0.9-1.6-1.6c-1.4-1.1-1.5-1.1-0.3,0.3C217.2,404.3,217.9,404.7,217.9,404
		L217.9,404z M212.5,399.4c0-0.2-1.1-1.3-2.5-2.5l-2.5-2.2l2.2,2.5C211.8,399.6,212.5,400.1,212.5,399.4z M199.8,387.3
		c-3.2-3.3-6-6-6.3-6c-0.2,0,2.2,2.7,5.4,6c3.2,3.3,6,6,6.3,6C205.4,393.3,203,390.6,199.8,387.3z M186.2,373.4c-3.2-3.3-6-6-6.3-6
		c-0.2,0,2.2,2.7,5.4,6c3.2,3.3,6,6,6.3,6C191.8,379.4,189.4,376.7,186.2,373.4z M178,364.3c0-0.2-1.1-1.3-2.5-2.5l-2.5-2.2l2.2,2.5
		C177.3,364.5,178,365.1,178,364.3z M172.6,357.8c0-0.2-0.9-1.1-2-2.1l-2-1.8l1.7,2.1C171.9,358,172.6,358.6,172.6,357.8z
		 M169,353.2c0-0.2-0.9-1.1-2-2.1l-2-1.8l1.7,2.1C168.3,353.4,169,354,169,353.2L169,353.2z M165.4,348.6c0-0.2-0.7-0.9-1.6-1.6
		c-1.4-1.1-1.5-1.1-0.3,0.3C164.6,348.9,165.4,349.3,165.4,348.6z M162.6,344.9c0-0.2-0.7-0.9-1.6-1.6c-1.4-1.1-1.5-1.1-0.3,0.3
		C161.9,345.2,162.6,345.7,162.6,344.9L162.6,344.9z M159.9,341.2c0-0.2-0.7-0.9-1.6-1.6c-1.4-1.1-1.5-1.1-0.3,0.3
		C159.2,341.5,159.9,342,159.9,341.2L159.9,341.2z M147.2,322.2c-0.5-1-1.2-1.8-1.4-1.8c-0.2,0,0,0.8,0.5,1.8c0.5,1,1.2,1.8,1.4,1.8
		C148,324,147.8,323.2,147.2,322.2z M144.5,317.5c-0.5-1-1.2-1.8-1.4-1.8c-0.2,0,0,0.8,0.5,1.8c0.5,1,1.2,1.8,1.4,1.8
		C145.3,319.4,145,318.6,144.5,317.5z M141.8,312.9c-0.5-1-1.2-1.8-1.4-1.8c-0.2,0,0,0.8,0.5,1.8c0.5,1,1.2,1.8,1.4,1.8
		C142.6,314.8,142.3,313.9,141.8,312.9z M133.4,296.8c-2.6-5.3-4.9-9.5-5-9.3c-0.4,0.4,8.7,19,9.3,19
		C138,306.5,136,302.1,133.4,296.8z M125.6,280c-1.1-1.9-1.3-1.3-0.5,1c0.3,0.8,0.8,1.3,1,1.1C126.4,281.9,126.1,280.9,125.6,280z
		 M212.7,120.2c-0.7-0.3-1.4-0.2-1.7,0.1c-0.3,0.3,0.2,0.5,1.2,0.5C213.2,120.8,213.4,120.5,212.7,120.2z M98.6,102.8
		c0.3-0.8,0.2-1.2-0.4-0.9c-0.5,0.3-0.9,1-0.9,1.4C97.4,104.7,98,104.4,98.6,102.8z M407.4,103.4c0-0.5-0.8-1.8-1.9-3l-1.9-2.2
		l1.6,3C406.9,104.4,407.4,104.8,407.4,103.4z M192.7,89.8c-0.7-0.3-1.4-0.2-1.7,0.1c-0.3,0.3,0.2,0.5,1.2,0.5
		C193.2,90.3,193.4,90.1,192.7,89.8z M232,88.6c0.9-1,1.4-1.8,1.2-1.8c-0.2,0-1.2,0.8-2.1,1.8c-0.9,1-1.4,1.8-1.2,1.8
		C230.1,90.4,231.1,89.6,232,88.6z M209,87.9c-0.7-0.3-1.4-0.2-1.7,0.1c-0.3,0.3,0.2,0.5,1.2,0.5C209.5,88.4,209.8,88.2,209,87.9z
		 M317.8,70.4c-0.7-0.3-1.4-0.2-1.7,0.1c-0.3,0.3,0.2,0.5,1.2,0.5C318.3,70.9,318.5,70.7,317.8,70.4z M310.5,69.5
		c-0.7-0.3-1.4-0.2-1.7,0.1c-0.3,0.3,0.2,0.5,1.2,0.5C311.1,70,311.3,69.7,310.5,69.5z M303.4,68.5c-0.6-0.3-1.6-0.3-2.3,0
		c-0.6,0.3-0.1,0.5,1.1,0.5S304,68.8,303.4,68.5z M213.6,67.6c-0.7-0.3-1.4-0.2-1.7,0.1c-0.3,0.3,0.2,0.5,1.2,0.5
		C214.1,68.1,214.3,67.9,213.6,67.6z M292.9,67.6c-0.9-0.2-2.1-0.2-2.7,0c-0.6,0.3,0.1,0.4,1.6,0.4C293.3,68,293.8,67.8,292.9,67.6z
		 M230.8,66.6c-1.6-0.2-4.1-0.2-5.4,0c-1.4,0.2,0,0.4,3,0.4C231.3,67,232.5,66.9,230.8,66.6z M278.9,66.6c-1.6-0.2-4.1-0.2-5.4,0
		c-1.4,0.2,0,0.4,3,0.4C279.4,67,280.5,66.9,278.9,66.6L278.9,66.6z"/>
	<path id="path3038" class="st1" d="M243.8,428.8c-16.2-8.7-54.1-43-73.9-66.9C119.8,301,94.8,227.6,91.4,131.1
		c-0.8-23.9,0.7-30.1,9.6-38.2c11.4-10.4,56.2-23.4,96.1-27.8c74.1-8.2,145.2-0.5,196,21.2c14.2,6.1,19.7,14.1,20.5,29.9
		c0.5,10.4-1.1,41.4-3,58.1c-11.7,102.7-53.8,180.4-130.9,241.2c-16.2,12.8-20,15-26.2,15.4C249.3,431.1,247.4,430.7,243.8,428.8z
		 M264.8,421.9c29.3-20.3,59.5-50.3,81.4-80.8c28.9-40.4,48-88.3,57.5-144.5c5.6-32.9,8-80.4,4.6-91.9c-2-6.7-8.1-11.6-21.4-16.9
		c-38.7-15.5-91.8-23.5-145.8-22c-49.2,1.4-88.9,8.5-122.9,22c-9.7,3.9-12.2,5.3-16.4,9.4c-4.9,4.7-5,5-6.1,12.2
		c-1.3,8.6-0.1,41.7,2.3,63.2c11.8,104.5,54.7,182.5,134.2,243.5c12.5,9.6,15.6,11.3,20.5,11.3C256.2,427.4,257.8,426.7,264.8,421.9
		z M243.3,422.7c-4.2-2.6-16.1-11.8-25.4-19.6c-49.3-41.5-83.3-92.1-102.9-153c-7.5-23.4-13.2-50.9-16.3-79.4
		c-1.5-13.8-3.3-53.3-2.6-57.7c1.1-7,1.1-7,3.2-5.9c2.9,1.6,4.2-0.3,2.3-3.3c-1.2-1.8-1.3-2.8-0.5-4.2c5-9.4,50.4-23.9,91.1-29
		c19.7-2.5,35.1-3.3,60.4-3.3c48.8,0,85.6,5.2,120.9,17c15.9,5.4,25.6,9.6,28.1,12.5c1.6,1.8,1.6,2,0.1,4.6c-2,3.4-1.3,4.6,2.6,4.6
		c3.3,0,3.2-0.1,4.4,7.2c0.7,4.5-1.1,44.8-2.7,59.2c-7.4,66.7-28.2,123.6-62.4,170.5c-20.1,27.7-51.1,58.2-78.4,77.3l-6.5,4.6
		l-1.5-2.1c-1.2-1.8-2-2-5.2-1.6c-2,0.3-4.1,1.1-4.7,1.9C246.5,424.4,246,424.3,243.3,422.7L243.3,422.7z M223.8,307.8
		c1.6-1.6,1.9-4.1,0.5-4.1c-0.5,0-0.9,0.4-0.9,0.9c0,0.5-1,1.2-2.3,1.5c-2.3,0.6-2.8,1.4-1.7,2.5
		C220.5,309.7,222.3,309.3,223.8,307.8z M199.8,295.8c0-0.2-0.4-0.4-0.9-0.4s-0.9,0.4-0.9,1c0,0.5,0.4,0.7,0.9,0.4
		C199.4,296.5,199.8,296,199.8,295.8z M263.1,288c-1.5-2.5-2.9-4.6-3.1-4.6c-0.2,0,0.8,2.2,2.1,4.9c1.3,2.7,2.7,4.8,3.1,4.6
		C265.6,292.7,264.7,290.5,263.1,288z M278.2,272.3c0.3-0.5-0.3-0.8-1.5-0.7c-1.6,0.2-2.2-0.4-2.7-2.5c-0.6-2.6-0.6-2.6-0.7-0.4
		C273.2,272.2,276.7,274.8,278.2,272.3L278.2,272.3z M257.7,258.1c4.1-0.8,5.5-2.1,5.5-5.1c0-2.7-2.6-7.3-2.7-4.6
		c0,0.8-1.8,3.2-4,5.4c-2.2,2.2-4.2,4.8-4.5,5.8c-0.4,1.6-0.3,1.7,1.1,0.5C253.9,259.3,256,258.4,257.7,258.1L257.7,258.1z
		 M286.8,256.6c-6-0.8-8.1-1.8-11.2-5.6c-3.9-4.7-2.8-10.1,2.5-12.5l2.9-1.3l-3.2,0c-9.5-0.1-9.7,13.3-0.2,18.3
		c2.4,1.3,5.1,1.8,8.9,1.8l5.4-0.1L286.8,256.6L286.8,256.6z M312.1,247.8c0-1-0.3-1.3-0.5-0.7c-0.3,0.6-1.2,1.2-2.2,1.2
		c-1,0-1.7,0.3-1.7,0.7s1,0.7,2.3,0.7C311.6,249.7,312.2,249.2,312.1,247.8L312.1,247.8z M215.6,242.5c1.5-2.4,3.7-4.6,4.9-4.9
		c2.5-0.7,8.6,1.1,12.1,3.6c3.6,2.5,8.2,3.1,9.7,1.2c0.7-0.8,2.3-1.5,3.6-1.5c2.3,0,2.3-0.1,0.6-1.4c-1.1-0.8-3.8-1.4-7.3-1.4
		c-6.7,0-9.6-1.4-11.4-5.4l-1.4-3l-1.7,1.9c-2.4,2.7-5.3,2.1-5.9-1.4l-0.5-2.8l-2.8,4.2c-4,5.9-5.8,9.7-5.8,12.3
		C209.8,248.8,211.9,248.3,215.6,242.5L215.6,242.5z M270.3,231.7c0.9-0.2-0.1-6.3-1.6-9.2c-1.4-2.7-2.5-3.7-4.8-4.2
		c-8.9-1.8-11.1-4.5-10.3-12.8c0.6-6.3,0.6-6.5-4.3-10.1c-1.9-1.4-3.9-3.6-4.5-4.8c-1.3-2.9-2.6-2.8-8.8,0.7c-7.3,4.1-8,5.5-4.7,9.8
		c1.5,1.9,2.9,5.2,3.3,7.4c0.3,2.2,1.1,3.9,1.8,3.9c1.7,0,3.2,4.2,3.2,8.6c0,3.3,0.6,4.6,4,8.5l4,4.6l11.2-1.1
		C265,232.3,270.1,231.8,270.3,231.7L270.3,231.7z M289.9,224.7c-1.2-3.3-3.5-10.9-5-16.9c-1.6-6.3-4.5-14.4-6.9-19.3
		c-3.9-8.1-5.1-9.5-6.1-7.8c-0.6,1,4.2,12.9,7.6,19c1.4,2.6,3.7,9,5,14.4c1.4,5.6,3.4,11.2,4.7,13.2c1.3,1.9,2.5,3.5,2.6,3.5
		C292,230.7,291.2,228,289.9,224.7z M268.5,176.9c-4.7-3.9-2.3-6.8,3.4-4.1c1.8,0.8,2.3,1.6,2,3.3c-0.3,1.4-0.1,1.9,0.5,1.3
		c1.6-1.7,0.3-4.3-3-6c-5.9-3-9,0.5-4.3,5c1.6,1.5,3.1,2.7,3.4,2.6C270.7,179,269.8,178,268.5,176.9z M306.3,171.2
		c0.7-1.8,1.3-4.2,1.3-5.3c0-2.8-3-7.7-5.6-9.1l-2.1-1.1l1.9,2.2c4.2,4.8,5,9,2.6,13.8c-0.9,1.7-1,2.7-0.4,2.7
		C304.6,174.4,305.6,173,306.3,171.2z M239.8,149.5c-4-2.5-3.7-5.9,0.7-9c2.5-1.7,4.1-2.1,7.9-1.9c3.2,0.2,4.8-0.1,4.8-0.8
		c0-0.6,1.9-1.7,4.3-2.5l4.3-1.4l-5.4,0.5c-8.3,0.7-14.2,2.7-18.1,6.1c-3,2.6-3.4,3.5-2.9,5.5c0.3,1.4,1.7,3.1,3.1,3.8
		C242.3,151.9,243.3,151.6,239.8,149.5L239.8,149.5z M120.8,126.6c-0.3-18.1-0.3-18.2,1.7-19.1c3-1.4,2.5-2.4-0.7-1.3l-2.7,1V126
		c0,13,0.3,18.8,1,18.8C120.8,144.9,121,139.4,120.8,126.6z M270.3,144.1c0.9-0.6,0.8-0.9-0.5-1.2c-0.9-0.2-2.2,0.1-2.8,0.8
		c-0.9,1-0.8,1.2,0.5,1.2C268.4,144.9,269.7,144.5,270.3,144.1z M382.7,107.1c1.4,0.5,2.1,0.6,1.6,0.1c-0.5-0.5-1.8-1.2-2.9-1.5
		l-2-0.6l0.2,19.2l0.2,19.2l0.3-18.7l0.3-18.7L382.7,107.1L382.7,107.1z M136.8,134.5c0.6-0.6,0.1-0.7-1.4-0.2
		c-3.5,1.1-8.2,3.1-8.2,3.6C127.3,138.5,135.8,135.5,136.8,134.5z M145.5,116.8c3.9-17,4-17.5,6.7-18.7l2.7-1.2l-2.4,0
		c-1.3,0-2.8,0.5-3.3,1.1c-0.9,1.1-9.3,36.6-9.2,38.8C140.2,139.2,141.7,133.6,145.5,116.8z M365.8,133.2c-1.1-1.9-1.3-1.3-0.5,1
		c0.3,0.8,0.8,1.3,1,1.1C366.5,135.1,366.3,134.1,365.8,133.2z M353.4,98c1.2,0.2,2,0.1,1.7-0.4c-0.3-0.4-1.5-0.8-2.7-0.8h-2.2
		l0.2,18.7l0.2,18.7l0.3-18.3l0.3-18.3L353.4,98z M157.6,128.8c-0.3-1.9-0.8-3.2-1.1-2.9c-0.2,0.3-0.2,2,0.2,3.8
		c0.3,1.9,0.8,3.2,1.1,2.9C158,132.3,157.9,130.6,157.6,128.8z M169.3,112.4c0.2-17.8,0.2-17.9,2.2-18.2c1.1-0.2,2-0.7,2-1.3
		c0-0.6-0.9-0.7-2-0.4c-1.1,0.3-2.3,0.6-2.7,0.6c-0.4,0-0.7,8.6-0.7,19.1c0,10.5,0.2,18.8,0.5,18.6
		C168.9,130.5,169.2,122.3,169.3,112.4z M341,94.8c2.3-0.4,2.2-0.4-0.5-0.5l-2.9-0.1l0.2,18.7l0.2,18.7l0.3-18.2l0.3-18.2L341,94.8
		L341,94.8z M179,120.4c-1.3-3.8-2.5-6.7-2.6-6.5c-0.2,0.2,0.6,3.7,1.8,7.7c1.1,4.1,2.3,7,2.6,6.5
		C181.1,127.7,180.3,124.2,179,120.4z M325.5,116.5c-0.2-2.4-0.3-0.4-0.3,4.4c0,4.8,0.2,6.8,0.3,4.4
		C325.7,122.8,325.7,118.9,325.5,116.5z M189.8,117.5c0-5.4-0.1-9.7-0.3-9.5c-0.8,0.9-1.2,19.3-0.5,19.3
		C189.5,127.3,189.8,122.9,189.8,117.5z M202.5,107.5V89.6l4.1-0.6c2.2-0.3,5.5-0.5,7.3-0.2c1.8,0.2,2.8,0,2.4-0.4
		c-0.4-0.4-4-0.7-7.9-0.5l-7.2,0.3l-0.2,19.2c-0.2,12.9,0.1,19,0.7,18.6C202.2,125.6,202.5,118.7,202.5,107.5L202.5,107.5z
		 M312,90.3l2.5-0.1l-2.3-0.7c-1.2-0.4-2.6-0.5-2.9-0.3c-0.4,0.2-0.6,8.8-0.5,19l0.2,18.6l0.3-18.2l0.3-18.2L312,90.3z M370,102.7
		c2.4,0.5,2.4,0.5-0.3-0.7l-2.7-1.3l-0.5,11.2c-0.2,6.2-0.2,11.8,0,12.6c0.2,0.8,0.6-4,0.7-10.5l0.3-11.9L370,102.7z M231.2,120.8
		c-2.8-3.4-3.7-7.5-3.6-16.3c0.1-7.5,2.2-14.3,5.1-16.4c1.1-0.8,3.6-1.4,5.6-1.4c3,0,3.4-0.2,2-1c-2.3-1.3-6-0.2-9,2.7
		c-6.4,6.2-7,26.4-1.1,33C233.2,124.6,234,124.2,231.2,120.8z M263.2,86.8c3.9,0.2,6.7,0,6.1-0.4c-0.6-0.4-4-0.7-7.6-0.7l-6.6,0
		l0.2,19.2l0.2,19.2l0.3-18.8l0.3-18.8L263.2,86.8L263.2,86.8z M269.1,118.1c-0.8-2.6-1.7-4.5-2-4.3c-0.2,0.3,0.2,2.6,1.1,5.2
		c0.8,2.6,1.7,4.5,2,4.3C270.5,123,270,120.7,269.1,118.1z M215.3,119.4c2.1-2,2.3-7.6,0.3-10.1c-1.4-1.7-1.4-1.7-0.5,0.2
		c2.4,5,0.1,10.4-4.4,10.5c-1.3,0-3,0.5-3.7,1c-1,0.7-0.4,0.9,2.6,0.5C211.8,121.2,214.3,120.3,215.3,119.4L215.3,119.4z
		 M283.5,118.8c-2-4-2.7-16.9-1.2-22.4c1.6-5.7,5.5-9,10-8.6c1.9,0.2,3.2,0,3-0.4c-0.2-0.4-2.1-0.7-4.1-0.7c-4.5,0-8.3,3.5-9.8,8.8
		c-1.6,6-1.2,17.8,0.8,22.3c1,2.2,2,3.9,2.3,3.9C284.8,121.8,284.3,120.4,283.5,118.8L283.5,118.8z M154.3,120.1
		c1-0.6,0.9-1.6-0.2-5.3l-1.4-4.5l0.5,4.2c0.5,3.8,0.3,4.3-1.6,5.2c-1.9,0.9-1.9,1-0.3,1.1C152.3,120.8,153.7,120.5,154.3,120.1z
		 M296.7,119.1c0.5-1,0.9-2.3,0.9-3c0-0.7-0.5-0.2-1.2,1.1c-0.9,1.9-1.8,2.3-4.5,2.2c-1.8-0.1-3.1,0.3-2.8,0.7
		C290.1,121.7,295.8,120.9,296.7,119.1z M242.6,116.3c1.1-2.3,1.6-5.5,1.6-11.1c0-9.9-1.8-14.2-6-14.6c-1.7-0.2-3.3,0.3-3.9,1.1
		c-1,1.2-0.8,1.2,1.7,0.3c2.6-1,3-0.9,4.5,1c3.3,4.1,3.6,19,0.4,23.9c-1.2,1.8-2.1,2.3-4.1,2c-1.4-0.2-2.4,0-2.1,0.4
		c0.3,0.4,1.8,0.7,3.4,0.5C240.4,119.5,241.4,118.8,242.6,116.3z M189.5,91.3c0.4-0.4,1.6-0.9,2.6-1.2c1.2-0.3,0.9-0.5-1-0.6
		l-2.8-0.1l-2.8,9.9c-1.6,5.5-2.8,10.5-2.8,11.3c0,0.8,1.4-3.1,3.1-8.6C187.4,96.6,189.1,91.7,189.5,91.3z M298,106.8l4.7-0.3
		l-5.2-0.2c-5.1-0.2-5.2-0.1-5.1,2.4c0.1,2.1,0.2,2.2,0.5,0.5C293.2,107.4,294,107.1,298,106.8z M220.2,107.1c-0.3-0.5-1-1-1.6-1
		c-0.6,0-0.5,0.5,0.2,1.4C220.1,109,221.2,108.7,220.2,107.1z M325.8,99.5V92l2.5,0.6c1.8,0.4,2.1,0.3,1.1-0.3
		c-0.7-0.5-2.1-0.9-2.9-1c-1.4,0-1.6,0.9-1.6,7.4v7.4l-4.8-0.4c-3.7-0.3-4.1-0.2-1.6,0.3C326,107.7,325.8,107.9,325.8,99.5
		L325.8,99.5z M214.4,102.5c2.6-2.1,2.8-7,0.4-9.2c-1.5-1.4-1.6-1.4-0.5,0c1.5,2,1,7.3-0.8,8.2c-0.7,0.4-2.8,1.1-4.5,1.6l-3.2,0.9
		l3.3,0.1C211,104.2,213.1,103.6,214.4,102.5L214.4,102.5z M269.6,101.5c2.2-2.2,2.4-6.7,0.4-8.7c-2.1-2.1-2.5-1.8-0.9,0.6
		c3.2,4.6,1.2,8-5.2,9.1l-3.8,0.6l3.9,0.1C266.7,103.3,268.3,102.8,269.6,101.5L269.6,101.5z M296.4,95.3c-0.3-0.3-0.5,0.2-0.5,1.2
		c0,1.1,0.3,1.3,0.5,0.6C296.8,96.4,296.7,95.6,296.4,95.3L296.4,95.3z"/>
	<path id="path3036" class="st2" d="M244.7,429c-10.9-5.3-39.4-29.3-58.5-49.2c-51.9-54.3-80.9-118.6-91.5-203
		c-1.4-11.2-3.6-45-3.6-55.5c0-17.1,5.3-27.6,17-33.2c12.5-6.1,37.6-13.9,56.8-17.8c33.5-6.8,80.5-9.8,116-7.5
		c39.8,2.7,69.7,8.3,98.6,18.4c20.6,7.3,26.8,11.4,31.4,21.3c2.3,5,2.4,5.2,2.2,25.4c-0.7,82.8-22.2,155.9-63,214
		c-19.2,27.3-46.3,55.2-75.6,77.6C258.8,431.3,253.2,433.2,244.7,429L244.7,429z M264.4,422.5c21.4-14.5,55-46.2,71.8-67.6
		c18-22.9,37.1-56,46.7-80.8c14.7-38.1,23-77.1,26.3-124.2c1.1-15.7,1.2-37.5,0.1-42.2c-0.5-2.3-0.5-3.5,0.2-3.8
		c1.3-0.5-1.7-5.3-3.3-5.3c-0.6,0-2.2-1.1-3.4-2.4c-8.5-9.3-52.4-22.4-92.4-27.5c-29.1-3.7-77.9-4.2-107-1
		c-44.6,4.9-92.2,18.4-101.9,29c-1.4,1.6-2.9,2.7-3.3,2.4c-4.7-3-4.6,40.9,0.1,79c10.4,83.5,40.2,148.1,93.3,202.3
		c18.7,19.1,41.5,38.3,53.7,45.3C251.9,429.4,254.9,428.9,264.4,422.5L264.4,422.5z M247.3,417.9c-2.1-1.2-7.9-5.5-13.1-9.4
		c-5.1-4-9.9-7.2-10.5-7.2c-0.7,0-2.5-1.2-4.1-2.7l-3-2.7l3.4,2.5c4.6,3.3,4.3,2.4-0.4-1.4c-2.1-1.7-3.5-2.6-3.1-2
		c1.5,2.5-1.1,0.8-4.5-2.8c-2-2.1-2.6-3.1-1.3-2.1c1.2,1-4.5-5.2-12.7-13.9c-14.5-15.2-28.4-32-37.5-45.2c-5.2-7.6-6.6-9.2-5.1-6
		l1.1,2.3l-1.9-2.3c-1-1.3-1.7-2.8-1.4-3.5c0.2-0.7,0-1-0.4-0.7c-0.9,0.6-3.9-4.5-3.1-5.3c0.2-0.3-1.6-4.2-4-8.8
		c-6.5-12.2-11.5-23-17.3-37.3c-2.8-7-5.4-12.4-5.7-12.1c-0.3,0.3-0.3-0.4-0.1-1.6c0.3-1.4,0.2-1.8-0.3-1c-1.1,1.6-4.2-7.4-3.4-10.1
		c0.5-1.7,0.4-1.9-0.4-0.7c-0.8,1.1-0.9,0.7-0.5-1.8c0.4-2.6,0.3-2.9-0.5-1.8c-0.9,1.2-1,1.1-0.5-0.3c0.3-0.9-0.5-5.7-1.7-10.6
		c-5.9-23.8-12-66.2-12.3-85.1c0-2.9-0.3-3.6-0.8-2.4c-0.6,1.7-0.7,1.6-1.3-0.5c-0.3-1.2-0.6-4.4-0.6-7.1c0-7.3-1.8-6.4-3,1.6
		c-0.2,1.3-0.4-3.9-0.5-11.5c-0.1-7.6,0.2-14.3,0.6-14.8c0.4-0.5,1.9-0.9,3.4-0.9c3.3,0,3.9-2,2-6c-1.3-2.6-1.2-2.9,1.1-5.2
		c2.3-2.4,10.9-6.9,15.5-8.1c2.2-0.6,2.2-0.6-0.2,0.8c-1.4,0.8-2.5,1.9-2.5,2.3c0,1.1,0,1.1,4.5-0.5c4.6-1.7,5.8-1.7,4.9-0.4
		c-0.4,0.7,0,0.8,1.1,0.5c19.5-6.3,36.2-10.4,53.8-13.5c8.3-1.4,14.2-2.8,13.1-3.1c-1-0.3,0.2-0.3,2.7-0.1c3.5,0.4,4.2,0.2,3.2-0.6
		c-1-0.8-0.2-0.9,3.6-0.6c2.7,0.2,13.8,0.1,24.5-0.3c36.1-1.5,51.2-1.8,50.1-1.1c-0.6,0.4,4.9,1.2,12.3,1.9c16.4,1.4,41.5,5,55,8
		c5.5,1.2,11.1,2,12.3,1.7c1.8-0.4,1.9-0.3,0.8,0.6c-1.1,0.9-1,1,0.6,0.5c2.3-0.7,6.8,0.3,6.2,1.4c-0.2,0.4,0.4,0.5,1.5,0.2
		c1.4-0.4,1.8-0.2,1.2,0.6c-0.5,0.9-0.2,1,1.3,0.5c1.3-0.4,1.8-0.3,1.5,0.3c-0.3,0.5,1.5,1.6,4.2,2.5c9,3,19.3,7.9,21.8,10.4
		c5.4,5.2,5.6,6.3,5.4,26.7c-0.2,15.9-1.9,44.1-3.5,55.6c-0.5,3.6-0.2,3,2.5-5.5c1-3.3,2.2-6.5,2.7-7c0.4-0.6,1.2-3.3,1.7-6
		c0.8-4.7,0.8-4.6,0.4,1.9c-3.2,46.1-18.8,101-39.9,139.7c-17.9,33-43.8,65.6-69.2,87.4l-5.9,5l4.1-4.6c2.3-2.5,4.8-6.1,5.6-7.9
		c0.8-1.8,2.8-5,4.4-6.9l3-3.6l-3.1,2.8c-1.7,1.6-5.8,5.3-9,8.3c-7.1,6.5-25.4,21.5-33.7,27.5C254.7,420.2,252.1,420.8,247.3,417.9
		L247.3,417.9z M224.3,308.3c3.8-3.9,1.5-6.7-2.9-3.5c-1.6,1.2-3.1,2.2-3.3,2.3c-0.7,0.4,2,3,3.2,3
		C221.9,310.2,223.3,309.3,224.3,308.3z M200.4,294.4c0.1-1.5-0.2-2.7-0.5-2.7c-1.2,0-3,4.5-2.4,6.1
		C198.3,300.1,200.2,297.9,200.4,294.4z M266.8,293.9c1.7-0.8,1.8-1.2,0.8-1.9c-0.7-0.4-2.1-2.2-3.2-4c-2.4-4-5.7-7.7-6.3-7
		c-0.3,0.3,0.8,2.6,2.5,5.2c2.4,3.9,2.9,5.3,2.5,8.3c-0.5,4,0.4,6,1.2,2.6C264.5,295.9,265.6,294.5,266.8,293.9L266.8,293.9z
		 M314.9,292.4c0-0.6-0.4-1.7-0.8-2.4c-1-1.6-2.3,0.3-1.6,2.2C313.2,293.8,314.9,294,314.9,292.4z M278.7,272.2
		c0-0.4-0.8-1.2-1.8-1.8c-1-0.5-1.8-1.6-1.8-2.3s-0.4-1.4-0.9-1.4c-1.6,0-1,5.4,0.6,6.3C276.4,274,278.7,273.5,278.7,272.2
		L278.7,272.2z M207.3,259.4l0.5-5.1l-1.4,3.2c-0.8,1.8-1.6,5.3-1.7,7.8c-0.3,4.5-0.3,4.6,0.9,1.8
		C206.2,265.7,207,262.2,207.3,259.4z M254.9,265.2c0.2-1.6,0.9-1.8,4.7-1.8c5.1,0.1,7.8-1.8,8.7-6.1c0.4-2.1,0.1-3.2-1.3-4.8
		c-1-1.1-3.5-5.3-5.4-9.2c-4-8.1-3.8-8.5,3.6-7.7c2.5,0.2,4.5,0.2,4.5-0.2c0-1.2,4.6-2.8,8.2-2.8c2.6,0,3.9,0.5,4.7,1.8
		c0.6,1,1.7,1.8,2.5,1.8c1.1,0,1-0.2-0.2-1c-2.8-1.7-1.7-2.8,1.3-1.2c2.2,1.2,2.6,1.7,1.6,2.3c-0.9,0.6-0.7,0.8,1,0.8
		c2.3,0,2.3,0-0.7-2.8c-2.3-2.1-3.8-2.7-6.6-2.7c-2,0-4.5-0.4-5.4-1c-2.2-1.2-2.4-4.1-0.3-3.3c0.8,0.3,2.5,0.8,3.9,1.1l2.4,0.5
		l-2.3-2c-1.2-1.1-3.4-2.4-4.8-2.9c-3-1.1-3.3-3.3-0.5-4.3c1.9-0.7,1.8-0.8-0.7-1.3c-1.7-0.4-3.2-1.6-4.2-3.5
		c-1.4-2.5-1.9-2.8-4.3-2.3c-3.1,0.7-7.2-1.4-7.2-3.7c0-0.8,0.9-2.2,1.9-3.3l1.9-1.9l-1.8-5.7c-1.7-5.4-2-5.8-6.8-8.1
		c-7.4-3.7-7.7-6.7-1-11.4c4.1-2.8,7.3-2.9,12.1-0.4c3.9,2,6.2,6.1,6.2,10.9c0,1.8,1.6,4.9,4.9,9.5c5.1,7.1,7.2,12.4,6.7,17.1
		c-0.2,2.2-0.8,2.8-3,3.1c-2.4,0.4-2.2,0.5,1.4,0.9c3.4,0.4,4.3,1,5.5,3.3c1.9,3.8,6.3,9.5,6.3,8.1c0-0.6-0.8-3.3-1.9-6
		c-1-2.7-3.3-10.3-5-16.9c-1.8-6.9-4.7-15.3-6.9-19.8c-2.1-4.3-4-8.1-4.1-8.5c-0.2-0.4,0.5-0.7,1.6-0.7c3,0,8.1,5.3,12,12.5
		c3.8,7.1,6.9,9.9,10.2,9.5c1.7-0.2,2-0.8,1.8-4.1c-0.2-4.4-3.1-10.9-5.8-12.6c-2.6-1.7-2.2-2.5,1.3-2.5c3.1,0,4.9-1.2,3.3-2.3
		c-0.5-0.3-3.9-1.3-7.6-2.3c-3.7-1-10.9-3.7-15.9-6c-5.6-2.6-9.8-4.1-10.9-3.7c-0.9,0.3-3.9,2.5-6.6,4.9
		c-7.4,6.6-13.3,10.7-19.8,13.9c-10.9,5.3-13.1,8.9-15.8,26c-0.8,5.3-1.8,9.9-2.2,10.2c-1.7,1.2-10.3,13.4-11.5,16.4
		c-1.6,3.9-1.7,5.9-0.3,9c1.3,2.9,4.7,3.1,6.5,0.4c2.1-3.1,4.2-1.6,3.6,2.4c-0.3,2.1-0.2,3.3,0.5,3.3c1.6,0,4.7-3.5,6.1-7
		c1.7-4.2,3.4-4.7,7.6-2.3c4.4,2.5,9.4,2.6,12.5,0.1c1.3-1,2.6-1.6,3-1.4c1,0.6,2.2-1.4,2.2-3.7c0-2.5,2.8-2.9,4-0.6
		c0.7,1.4,0.7,2.4-0.1,3.7c-1.6,2.6-0.1,3.5,2.9,1.8l2.6-1.5l0.4,3.4c0.3,3-0.1,3.8-3.9,7.7c-4.8,4.7-6.1,8.1-4.5,11.6
		C252.5,268.1,254.5,268,254.9,265.2L254.9,265.2z M219.7,245.9c0-2.7,1.5-5.9,2.8-5.9c1.3,0,1.1,5.9-0.2,7.2
		C220.6,248.9,219.7,248.5,219.7,245.9z M232,233.8c-0.8-0.8-1.9-2.5-2.3-3.7c-1.2-3.2-3.3-3.6-5.9-1.2c-2.7,2.6-3.7,1.9-2.4-1.6
		c0.5-1.4,1.4-6.5,2-11.3c1.7-13.6,5.6-15.9,8.7-5c0.8,2.7,2,5.6,2.7,6.3c0.7,0.7,1.3,3,1.3,5c0,3,0.7,4.5,3.6,8
		c2,2.3,3.6,4.4,3.6,4.7c0,0.2-2.2,0.4-4.9,0.4C235,235.4,233,234.9,232,233.8L232,233.8z M268.2,175.8c-2.2-1.8-2.5-2.5-1.4-3.1
		c2.5-1.7,8.1,2,6.3,4.2C271.7,178.5,271.4,178.5,268.2,175.8z M295.1,256.8c0.9-0.9-0.2-1.1-5.5-1.1c-9.9,0-14.6-3.3-14.6-10.2
		c0-7.6,9.5-9.7,11.9-2.6c0.5,1.5,1.3,2.7,1.8,2.7c0.5,0,0.5-0.7-0.1-1.8c-1.5-2.9-1.1-3.7,2-3.9c2.2-0.1,1.7-0.3-1.9-0.9
		c-2.7-0.4-5.6-1.2-6.5-1.7c-3.7-2-9.9-0.7-12.4,2.7c-3.2,4.2,0.5,13,7,16.5c3.5,1.9,5.1,2.2,10.6,1.9
		C291.1,258.1,294.5,257.4,295.1,256.8L295.1,256.8z M313.5,250.9c-0.4-0.6-0.7-1.9-0.7-2.9c-0.1-1-0.7-2.1-1.4-2.3
		c-0.8-0.3-1,0-0.6,0.6c0.4,0.6-0.1,1-1.1,1c-1,0-2,0.6-2.3,1.4c-0.4,1,0.1,1.4,2.1,1.4c1.5,0,2.9,0.4,3.2,0.9
		c0.3,0.5,0.8,0.9,1,0.9C313.9,252,313.8,251.5,313.5,250.9L313.5,250.9z M309.8,227.4c0.7-1.8-0.3-8.7-1.3-8.7
		c-1.4,0-2.5,8.2-1.2,9.5C308.3,229.3,309.2,229,309.8,227.4L309.8,227.4z M216.1,222.3c2-3.1,3.6-6.1,3.6-6.7c0-0.6-1,0.8-2.2,3
		c-1.2,2.2-3.1,5.2-4.1,6.7c-1,1.5-1.7,2.7-1.4,2.7C212.3,228,214.1,225.4,216.1,222.3L216.1,222.3z M312.6,201.9
		c-0.6-3.9-2-5.3-3.2-3.4c-1.3,2.2-0.9,7.2,0.8,8.9c1.5,1.6,1.6,1.6,2.3-0.2C312.9,206.2,312.9,203.8,312.6,201.9z M221.2,203.3
		c-0.3-0.3-0.5,0.2-0.5,1.2c0,1.1,0.3,1.3,0.5,0.6C221.5,204.4,221.5,203.6,221.2,203.3L221.2,203.3z M228.3,190.1
		c0.9-1,1.4-1.8,1.2-1.8c-0.2,0-1.2,0.8-2.1,1.8s-1.4,1.8-1.2,1.8C226.5,192,227.4,191.1,228.3,190.1z M308.1,168.6
		c1.2-6.5-4.6-13.6-12.3-15c-3.1-0.6-3.1-0.6,0.9,1.6c7.1,3.8,10.3,12,6.8,17.2c-0.8,1.1-1.1,2.5-0.8,3.1
		C303.7,177.1,307.5,172.3,308.1,168.6z M253.7,173.5c0.9-1,1.4-1.8,1.2-1.8c-0.2,0-1.2,0.8-2.1,1.8c-0.9,1-1.4,1.8-1.2,1.8
		C251.9,175.3,252.8,174.5,253.7,173.5z M259.6,168.4c0.6-0.8,0.9-1.4,0.7-1.4c-0.2,0-1,0.6-1.6,1.4c-0.6,0.8-0.9,1.4-0.7,1.4
		C258.3,169.8,259,169.2,259.6,168.4z M243.8,150.8c-7.8-2.9-8.2-8.2-0.8-11.1c3.6-1.4,5.9-1.4,9.8,0.2c1,0.4,1.4,0.1,1.4-0.9
		c0-2,3.6-3.3,9.3-3.4c3.7-0.1,4.2-0.2,2.4-0.8c-9.3-3-26.4,1.8-30.3,8.5l-1.7,2.9l3.3,3.1c2.6,2.4,4.1,3.1,6.7,3l3.4-0.1
		L243.8,150.8L243.8,150.8z M120.9,126.5c0-15.4,0.2-18.4,1.4-18.8c1.2-0.5,1.4,1.6,1.4,15.6c0,17.9-0.3,17.1,6.3,14.7
		c4.4-1.6,5.4-1.7,5.4-0.6c0,0.4-3.1,1.9-6.8,3.3c-3.8,1.4-6.7,2.7-6.5,2.9c0.2,0.2,3.4-0.8,7.2-2.2c6.1-2.2,6.9-2.8,7.2-5.1
		c0.4-2.8,0-2.8-6.5-0.1c-5.8,2.4-5.7,2.9-5.4-14.9c0.1-8.9,0.2-16.2,0.2-16.2c-0.1,0-1.4,0.5-2.9,1l-2.9,1v19.4
		c0,12.7,0.3,19.2,0.9,18.8C120.6,145,120.9,137.7,120.9,126.5z M271.3,144.1c0.9-0.6,0.7-0.9-0.9-1.3c-1.1-0.3-2.3-0.2-2.6,0.3
		c-0.3,0.4-1.9,1-3.7,1.2c-2.5,0.3-2.3,0.4,1.4,0.5C268,144.8,270.6,144.5,271.3,144.1z M380.4,124.9l-0.3-18.1l2.5,0.6
		c3,0.8,1.8-0.8-1.3-1.8l-2-0.6v19c0,10.4,0.3,19,0.7,19C380.3,143,380.5,134.9,380.4,124.9L380.4,124.9z M362.8,124.7
		c-3.1-7.7-5.8-13.8-6-13.6c-0.2,0.2,1.7,5.7,4.3,12.3c2.6,6.5,5,12.9,5.5,14.1c0.5,1.2,1,2,1.3,1.7
		C368.2,138.9,365.9,132.4,362.8,124.7L362.8,124.7z M145.9,132.2c0.9-5.8,1.2-6.4,3.9-7.1c1.3-0.3,3.1-0.8,3.9-1
		c1.2-0.4,1.7,0.6,2.5,4.6l1,5.1l2.8-1c3.2-1.1,3.4,1-2.2-21.1L154,96.3l-2.8,0.7c-2.6,0.7-2.9,1.2-4.3,7.9
		c-0.9,3.9-2.9,13-4.5,20.2l-3,13l2.9-0.9C144.9,136.4,145.3,135.8,145.9,132.2z M143,132.4c-0.3-0.8-0.3-1.6-0.1-1.9
		c0.2-0.3,0.7,0.4,0.9,1.4C144.4,134.1,143.8,134.5,143,132.4L143,132.4z M143.7,127.9c0-1,0.2-1.5,0.5-1.2c0.3,0.3,0.3,1.1,0.1,1.8
		C143.9,129.2,143.7,128.9,143.7,127.9L143.7,127.9z M145.5,119.6c0-1,0.2-1.5,0.5-1.2c0.3,0.3,0.3,1.1,0.1,1.8
		C145.7,120.9,145.5,120.6,145.5,119.6L145.5,119.6z M149.1,117.4c0-1.4,0.6-4.6,1.2-7.2l1.1-4.6l1.1,6.4c0.9,5.2,0.9,6.5-0.1,7.1
		C150.2,120.6,149,120,149.1,117.4z M146.4,115.9c0-1,0.2-1.5,0.5-1.2c0.3,0.3,0.3,1.1,0.1,1.8C146.7,117.2,146.4,116.9,146.4,115.9
		L146.4,115.9z M147.8,110.3c1-6.2,2.2-8.9,1.6-3.7c-0.3,2.5-0.9,5.2-1.4,6C147.5,113.5,147.4,112.7,147.8,110.3z M150,100.3
		c0-1.1,0.7-1.6,2-1.5c1.4,0,1.6,0.2,0.7,0.6c-0.7,0.3-1.7,1-2,1.5C150.2,101.6,150,101.3,150,100.3z M352.1,115.9V98l2.5,0.4
		c1.9,0.3,2.2,0.2,1.1-0.6c-0.7-0.5-2.3-1-3.4-1l-2,0v18.5c0,11.7,0.3,18.5,0.9,18.5C351.7,133.8,352.1,127.2,352.1,115.9z
		 M172.2,130.1c1,0,1.3-2.3,1.4-12.2c0.1-6.7,0.3-11.2,0.5-9.9c0.6,3.7,5.8,20.7,6.6,21.5c0.4,0.4,0.9-0.8,1.3-2.8s2-7.9,3.7-13.2
		l3.1-9.7l-0.5,12.1l-0.5,12.1l2.8-0.4l2.8-0.4l0.3-18.8l0.3-18.8l-2.9,0c-2.8,0-2.9,0.2-4.9,6.7c-1.1,3.7-2.7,9.5-3.6,13l-1.6,6.3
		l-3.3-10.6c-1.8-5.8-3.3-11-3.3-11.6c0-1.2-1.3-1.3-4.3-0.5c-2,0.6-2,0.6-2,19.5c0,16.9,0.2,18.9,1.4,18.4
		C170.3,130.4,171.5,130.1,172.2,130.1z M338.7,112.9l-0.3-18.1l2.3,0.6c1.3,0.3,2.3,0.2,2.3-0.2c0-0.5-1.2-1-2.7-1.2l-2.7-0.4v18.8
		c0,10.3,0.3,18.8,0.7,18.8C338.6,131,338.8,122.9,338.7,112.9L338.7,112.9z M325.5,115.1c-0.2-2.7-0.3-0.5-0.3,4.8s0.1,7.5,0.3,4.8
		C325.7,122.1,325.7,117.8,325.5,115.1z M213.5,124.5c4.9-1.3,7.4-4.6,7.9-10.5c0.4-4.4,0.1-5.3-1.8-7.3c-2.2-2.2-2.2-2.3-0.6-4.3
		c2.5-3.2,2.2-9.7-0.6-12.6c-2.1-2.1-2.8-2.3-9.7-2l-7.5,0.3l-0.2,19l-0.2,19l4.8-0.4C208.1,125.5,211.7,124.9,213.5,124.5z
		 M206.1,113.9v-6h3.5c4.2,0,6.5,2.2,6.5,6.2c0,3.6-2.5,5.8-6.6,5.8h-3.3V113.9z M206.5,102c-0.3-0.7-0.3-3.1-0.2-5.3
		c0.3-3.6,0.5-4.1,2.7-4.3c3.9-0.5,6.2,1.3,6.2,4.8c0,3.5-1.1,4.7-5.2,5.5C207.9,103.1,206.8,102.9,206.5,102L206.5,102z
		 M310.4,108.3c0-17.7,0-18.1,1.8-17.6c1,0.3,1.8,0.2,1.8-0.2c0-0.7-3-1.8-4.8-1.9c-0.4,0-0.7,8.5-0.7,18.9c0,12,0.3,18.9,0.9,18.9
		C310,126.4,310.4,119.8,310.4,108.3z M370,102.9c2.4,0.5,2.4,0.5-0.3-0.8l-2.7-1.3l-0.3,10.7c-0.2,9.6-0.4,10.5-1.6,8.9
		c-1.2-1.6-1.3-1.5-0.4,1c2,5.9,2.3,5.2,2.5-6.7l0.3-12.2L370,102.9L370,102.9z M297.7,124c1.5-0.9,1.6-1.2,0.5-0.8
		c-1,0.4-3.2,1-5,1.3c-3.1,0.7-3.1,0.7-0.5,0.8C294.2,125.4,296.4,124.8,297.7,124z M242.2,122.7c3.6-2.3,5.5-6.5,6.2-14.1
		c1.4-15.7-5.6-26.6-14.5-22.3c-4.6,2.2-7.2,8-7.7,17.1C225.3,120,232.5,128.7,242.2,122.7z M234.3,117.2
		c-3.7-3.8-3.8-19.6-0.1-23.6c2.8-3,5-2.9,7,0.2c1.3,2,1.6,4.4,1.6,11.4c0,6.9-0.4,9.4-1.6,11.4
		C239.4,119.5,236.7,119.7,234.3,117.2L234.3,117.2z M275,122.7c0-0.4-1.2-4.1-2.6-8.3l-2.6-7.5l2.1-1.4c4.9-3.2,4.7-13.8-0.2-17.8
		c-1.9-1.5-3.7-1.9-9.5-1.9h-7.1v18.9v18.9h2.3c2.2,0,2.3-0.1,2.3-8.3V107l2.5,0c2.4,0,2.6,0.5,5.1,8.6c2.6,8.5,2.6,8.6,5.2,8.2
		C273.8,123.6,275,123.1,275,122.7L275,122.7z M271.1,122c-0.2-0.4-1.5-4.1-2.8-8.3l-2.5-7.6h-3.6c-2.2,0-3.5-0.4-3.5-1.2
		c0-0.8,1.7-1.2,5-1.3c2.8-0.1,5.6-0.6,6.2-1.2c3.4-2.8,2.2-10-1.9-11.9c-2.7-1.2-8.2-1.4-8.9-0.2c-0.3,0.5-0.6,5.4-0.7,11.1
		s-0.4,10-0.7,9.7c-0.3-0.3-0.7-5.7-1-12l-0.5-11.5l6.4,0c7.4,0,9.8,1.3,11.3,6c1.4,4.4,0.4,8.3-2.8,10.9l-2.7,2.1l2.7,8
		c2,6.1,2.4,8,1.4,8C272.1,122.7,271.3,122.4,271.1,122L271.1,122z M260,101.1c-0.3-0.7-0.4-3.3-0.2-5.8c0.3-4.3,0.4-4.5,3.2-4.8
		c5.9-0.6,10,7.2,5.5,10.4C266,102.8,260.6,102.9,260,101.1z M286.9,122.2c-3.5-3-5-7.6-5-16.1c-0.1-9.2,2.2-15.4,6.2-17.1
		c4.1-1.8,9-0.1,11.2,3.7c0.6,1,1,1.3,1.1,0.6c0-0.7-1.2-2.4-2.6-3.9c-2-2.1-3.5-2.7-6.2-2.7c-7.9,0-11.4,6.7-10.9,20.5
		c0.4,9.5,2.3,15.1,5.7,16.5C289.6,125,289.8,124.6,286.9,122.2z M296.2,120.5c3.2-3.2,2.6-10.7-0.8-10.7c-0.7,0-1.2-0.7-1.2-1.5
		c0-1,0.5-1.3,1.4-0.9c0.8,0.3,2.4,0.6,3.6,0.6c1.9,0,2.2,0.5,2.5,4.8l0.3,4.8l0.2-5.8l0.2-5.8h-5c-4.7,0-5,0.1-5,2.2
		c0,1.8,0.5,2.3,2.5,2.5c2.2,0.3,2.5,0.6,2.2,3.1c-0.5,4.1-1.8,6-4,6c-3.4,0-6-2.9-6.9-7.4c-0.5-2.8-0.8-3.4-0.9-1.7
		C284.8,118.5,292,124.7,296.2,120.5z M301.1,119.5c-0.3-0.3-0.8,0.2-1.1,1.1c-0.5,1.3-0.4,1.4,0.5,0.5
		C301.1,120.5,301.4,119.7,301.1,119.5z M325.8,100c0-6.8,0-6.9,2.3-6.9c1.3,0,2.1-0.4,1.8-0.9c-0.3-0.5-1.6-0.9-2.8-0.9
		c-2.2,0-2.2,0.2-2.2,7.4c0,5.3-0.3,7.4-1.1,7.3c-0.6,0-3.1-0.4-5.4-0.8c-2.4-0.4-4.3-0.4-4.3,0c0,0.4,1.9,1,4.3,1.3
		c2.4,0.3,4.7,0.7,5.2,0.9C325.4,108,325.8,106.7,325.8,100L325.8,100z M286.3,98.4c0.3-1.9,1.4-4.3,2.3-5.3c1-1,1.4-1.8,0.9-1.8
		c-1.6,0-3.8,4.5-4.2,8.5C284.9,104.4,285.5,103.6,286.3,98.4L286.3,98.4z M297.7,97.4c0-1.2-2.2-5.1-3.1-5.4
		c-0.7-0.3-0.6,0.6,0.3,2.7C296.1,97.2,297.7,98.8,297.7,97.4L297.7,97.4z M301.3,96c0-0.5-0.6-0.7-1.4-0.4
		c-0.7,0.3-1.4,0.7-1.4,0.9s0.6,0.4,1.4,0.4C300.7,96.9,301.3,96.5,301.3,96z M115.1,93.3c-0.3-0.3-1,0-1.6,0.6
		c-0.9,0.9-0.8,1,0.5,0.5C114.9,94.1,115.4,93.6,115.1,93.3z"/>
	<path id="path2991" class="st3" d="M250.2,430.3c-3.4-0.5-5.7-1.6-10.6-5.2c-16.7-12.2-30.5-23.5-42.9-35.2
		c-4.7-4.5-15.2-15.2-18.8-19.4c-15-17.1-27.4-34.6-42.6-60.1c-3.4-5.6-7.4-14-13-26.7c-18.1-41.3-27.6-83-30.4-133.9
		c-0.5-9.9-0.7-17.5-0.7-28.8c0-9.3,0.1-10.4,0.5-12.8c0.8-4.6,2.5-9,4.4-12c2.4-3.7,9-8.9,14.3-11.4c7.5-3.5,25.7-9,42.1-12.7
		c4.5-1,13.2-2.8,16.2-3.3c0.9-0.2,2.7-0.5,4.1-0.7c1.4-0.2,3.2-0.5,4.1-0.7c0.9-0.1,2.3-0.4,3.2-0.6s2.5-0.5,3.6-0.6
		c1.1-0.1,3.5-0.5,5.2-0.7c1.7-0.2,3.6-0.5,4.2-0.6c5.5-0.7,7.3-0.9,10.9-1.3c18.5-2,43-3,60.7-2.3c7.8,0.3,25.4,1.3,26.8,1.5
		c0.4,0.1,2.1,0.2,3.9,0.3c1.7,0.1,4.6,0.4,6.3,0.6c1.7,0.2,4.6,0.5,6.2,0.7c7.9,0.9,14.8,1.8,17.7,2.3c1.1,0.2,3.9,0.6,6.2,1
		c25,4,45.6,9.9,61,17.2c6.7,3.2,9.3,5,12.5,8.5c3.8,4.1,6,8.4,7.2,13.7c1,4.6,0.6,33-0.8,51.1c-1.9,24.7-5,45.5-10.3,67.2
		c-5.7,23.5-13.3,45-24.4,68.8c-3.8,8.1-4.8,10-7.9,15.4c-1.7,2.9-3.1,5.3-3.2,5.4c-0.1,0.1-0.4,0.7-0.8,1.3c-0.4,0.6-0.8,1.2-1,1.5
		c-0.1,0.3-0.7,1.2-1.2,2.1c-0.5,0.9-1,1.7-1.1,1.8c0,0.1-0.2,0.3-0.2,0.3s-0.6,0.8-1.1,1.7c-0.5,0.9-1.4,2.2-1.9,2.9
		c-0.5,0.7-0.9,1.4-0.9,1.5c0,0.1-0.1,0.3-0.2,0.3c-0.2,0.1-1.4,2-1.4,2.2c0,0.1-0.2,0.3-0.3,0.3c-0.2,0.1-0.3,0.2-0.3,0.4
		s-0.6,1.1-1.2,2.1c-0.7,1-1.2,1.9-1.2,2.1c0,0.1-0.2,0.3-0.3,0.4c-0.2,0.1-0.3,0.3-0.3,0.5c0,0.2-0.1,0.4-0.2,0.4
		c-0.1,0-0.3,0.3-0.5,0.6c-0.2,0.3-0.4,0.7-0.5,0.9c-0.8,1-1.7,2.3-3.3,4.7c-1.6,2.3-3.3,4.7-5.6,7.9
		c-20.4,27.6-41.8,48.3-75.3,73.1c-4.9,3.6-7.2,4.9-10,5.6C254.7,430.3,251.9,430.5,250.2,430.3L250.2,430.3z M256,428.2
		c2.8-0.7,5.2-2,9.7-5.3c42.8-31.6,66.8-57.3,94.1-101c7.3-11.7,10.9-18,13.8-24.2c7.9-16.8,13.7-30.9,18.4-45
		c11.4-34.4,17.6-70.8,19.1-113c0.4-9.9,0.3-29.1-0.1-31.5c-1.1-6.5-5-12.7-10.8-17c-2.1-1.6-9.5-5.4-14.3-7.3
		C371.7,78,355.6,73.7,334.5,70c-12.4-2.2-28.5-4.2-44.1-5.4c-1.6-0.1-3.5-0.3-4.2-0.4c-2.1-0.2-12.1-0.8-17.8-1.1
		c-10.9-0.5-30.7-0.2-44.6,0.6c-36.3,2.2-76,9.5-103.3,18.9c-7.5,2.6-10.2,3.8-14.1,6.3c-6.3,4.2-9.2,7.3-11.2,12.4
		c-2.4,5.9-2.9,10.9-2.5,28.8c0.5,22.7,1.8,40.3,4.4,58.9c5.2,36.8,14.4,67.9,30.1,101.9c6.1,13.2,7.8,16.4,17.5,32
		c2.4,3.8,8.9,13.7,11.6,17.5c18.3,26.1,35.9,45,62.3,66.4c6.8,5.6,23.1,17.9,25.9,19.6c1,0.6,3.6,1.6,4.9,1.9
		C251.1,428.8,254.1,428.7,256,428.2L256,428.2z M249.9,418.9c-1.4-0.4-4.5-2.6-11-7.7c-39.6-31.1-61.9-55.5-84.3-91.9
		c-3-4.9-7-11.7-9.7-16.5c-2.7-4.8-11.2-22.9-15.5-32.8c-15.1-35-23.4-71.4-26-113.7c-0.9-14.9-1-35.2-0.3-39.5
		c0.8-4.7,2.4-8.8,4.5-11.9c2.3-3.5,6.5-6.9,10.5-8.5c8.2-3.4,26.7-8.8,42.6-12.3c27.6-6.1,53.4-9.3,82.3-10.1
		c8-0.2,21.8-0.2,24.6,0.1c0.5,0.1,2.4,0.2,4.3,0.2c17.9,0.7,42,3.3,59.2,6.4c21.3,3.8,37.5,8.6,51.4,15.2c2.2,1,4.7,2.3,5.7,2.7
		c7.7,3.6,11.2,9.2,12.3,19.7c0.6,5.1-0.8,30.6-2.6,48.5c-5.1,50.8-15.4,87.9-34.7,125.4c-7.8,15.2-20.3,35.9-29.7,49.3
		c-16.2,23.1-31.8,39.2-63.4,65.2c-0.6,0.5-3.3,2.7-5.9,4.9c-2.6,2.2-5.4,4.4-6.3,5C255.1,418.8,252.2,419.5,249.9,418.9
		L249.9,418.9z M191.1,336.3c2.8-1.3,3.7-3.3,4.1-8.7c0.2-3.6,0.9-5,2.7-5.4l0.9-0.2l-0.1-2.2c-0.2-3.3-0.1-8.1,0.1-8.8
		c0.1-0.3,1.2-2,2.5-3.6c3-3.8,4.9-6.5,5.4-7.9c0.2-0.6,0.6-2.6,0.9-4.4c0.5-3.7,0.3-3.2,4.4-10c1.2-2,3-5.4,4.1-7.5
		c1.1-2.3,2.2-4.2,2.7-4.7c0.5-0.5,1.1-1.2,1.3-1.5c0.3-0.3,0.6-0.5,0.7-0.5c0.5,0,1.8,1.5,2.3,2.5c0.5,1,0.5,1.3,0.5,6.5
		c0,5.4,0,5.4,0.5,5.8c0.3,0.2,0.8,0.4,1.1,0.4c0.5,0,0.5,0-0.1-0.7c-0.9-1-1.1-2.4-1-6.3c0.1-3.1,0.1-3.5-0.4-4.9
		c-0.3-0.8-0.5-1.9-0.4-2.3c0.1-0.7,0.1-0.8,1.1-0.8c1.2-0.1,1.7-0.5,2.3-1.7c0.4-0.9,0.5-1.6,0.5-2.9c0-0.6-0.2-0.8-1.2-1.4
		c-1.5-0.9-2-1.5-2.3-3.4c-0.3-2.2-0.1-9.1,0.4-10.7c0.4-1.4,0.6-1.4,2.2-0.3c1.6,1.1,6.4,3.2,8.8,3.8c2.9,0.7,6.9,0.8,8.1,0.2
		c1.1-0.6,5.2-3.7,6.9-5.3c0.8-0.7,2-1.8,2.8-2.3c0.7-0.6,1.8-1.3,2.3-1.8c0.5-0.4,1.1-0.8,1.4-0.8c0.8,0,3,0.9,3.7,1.5
		c1.4,1.2,0.7,2.4-2.6,4.6c-2.6,1.7-5.4,4.8-6.7,7.4c-0.6,1.2-3.4,9.5-3.4,10.1c0,1,0.7,3,1.5,4.1c2.7,3.9,4,6,4.3,7.1
		c0.2,0.7,0.5,1.6,0.7,2c0.7,1.8-0.1,2.8-3.1,3.5c-1.2,0.3-2.7,0.6-3.4,0.7l-1.3,0.2l0.4,0.6c0.3,0.5,0.4,0.5,0.6,0.2
		c0.2-0.3,0.7-0.4,2.8-0.4c2.1,0,2.8-0.1,3.8-0.5l1.2-0.5l0.6,0.7c0.6,0.8,4.3,4.7,4.3,4.5c0-0.6-1.8-4.6-3.1-7.3
		c-1-1.8-2.2-4.3-2.8-5.5c-0.6-1.2-1.8-3.3-2.9-4.7c-1-1.4-1.9-2.8-2-3.1c-0.3-1.2-0.2-3.1,0.4-4.7c0.9-2.5,1.6-2.3,1.6,0.4
		c0,2,0.3,2.6,2.4,5.8c2.5,3.7,2.7,4,3.9,7.1c1.1,2.7,2.4,5.1,3.9,7.3c0.8,1.1,2.2,5.1,2.2,6c0,0.4-0.3,0.9-0.8,1.4l-0.8,0.8
		l-0.5-0.6c-0.3-0.3-0.6-0.6-0.6-0.5c-0.1,0.1-0.2,0.8-0.2,1.6c-0.1,1.5-0.1,1.5,0.7,2.2c0.8,0.7,0.8,0.8,0.8,2.1
		c0,1.7,0.5,2.8,1.5,3.5c0.4,0.3,1.8,0.7,3.2,1l2.5,0.5l0.9-0.7c1.6-1.3,3.4-3.5,3.6-4.4c0.3-1.1,0.1-2.1-0.5-2.6
		c-0.3-0.2-0.6-0.7-0.8-1c-0.5-0.9-0.1-1.1,2-1.1c1.7,0,1.8,0,2.3-0.7c0.6-0.7,2.1-4.2,3-6.8c0.5-1.3,0.6-2.1,0.6-3.8
		c0-1.8,0.1-2.5,0.6-3.9c0.8-2.4,0.8-4.1,0-5.7c-0.7-1.3-1.1-1.8-2.8-2.9c-1.9-1.2-1.6-1.9,0.9-2.9c1.5-0.6,2.2-1.2,2.2-1.8
		c0-0.5,0-0.5-2-0.4c-2,0.1-2,0.1-2.4-0.5c-1.3-1.9-2-2.1-3.3-1.2c-1.4,1-4.5,6.8-4.5,8.4c0,0.9,1,1.9,2.9,2.7c1,0.4,2,0.9,2.3,1.1
		c0.9,0.6,1.4,1.7,1.4,3.2c0,0.8,0.1,1.7,0.2,2.1c0.1,0.3,0.2,1.3,0.2,2.1c0,1.2-0.1,1.8-0.7,2.9c-0.9,1.9-3.8,5.6-4.5,5.9
		c-0.8,0.3-1.7-0.4-2.1-1.6c-0.3-0.9-0.3-1.1,0.2-2.2c1.1-2.5,1.2-3.4,0.9-6.9c-0.1-1.8-0.4-3.6-0.5-3.9c-0.5-1-1.2-0.7-2.8,1.2
		c-1.5,1.8-2.4,2.6-3.2,2.6c-0.8,0-1-0.8-0.9-2.6c0.1-1.9,0.5-3.1,2.2-6.7c1.2-2.7,3.2-7.9,3.8-10.1c0.5-1.7,0.6-6.1,0.1-8
		c-0.2-1-0.6-1.6-1.5-2.5c-2-2.2-4.7-6-6.2-8.8c-1.6-3.2-2.8-6.5-2.2-6.5c0.3,0,2.8,3.3,3.9,5c1.3,2.1,1.9,2.7,3,2.5
		c0.8-0.1,0.8-0.1,1,0.7c0.4,2.7,1.7,5.4,3.7,7.8c0.9,1.1,4.8,4.2,5.9,4.8c1.3,0.7,3.4,1.4,5.9,2c1.5,0.4,2.7,0.5,5.6,0.5
		c3.9,0,4.8-0.2,5.7-1.1c0.2-0.3,1-0.7,1.8-0.9c0.7-0.3,1.6-0.6,1.9-0.8c0.8-0.4,1.4-1.4,1.2-1.9c-0.1-0.4-0.3-0.5-3-0.6
		c-3.4-0.2-6.5-0.9-8.8-2.1c-0.9-0.5-2.3-1.1-3.2-1.4c-2.7-1-4.7-2.7-5.2-4.2c-0.2-0.8,0.2-1.4,1.1-1.6c0.4-0.1,0.8-0.2,0.9-0.4
		c0.1-0.1,0.3-0.2,0.5-0.2c1,0,1-0.3,0.5-2.5c-0.6-2.6-0.6-3.1,0-3.1c0.9,0,1.6,0.6,2.9,2.5c0.7,1.1,1.9,2.6,2.6,3.3
		c1.1,1.2,1.4,1.3,2.2,1.3c0.5,0,1-0.1,1.1-0.2s-0.1-0.6-0.3-1.1c-0.3-0.6-0.5-1.4-0.5-2.1c0-1,0.1-1.3,0.7-2c0.7-0.8,0.8-0.8,2-0.8
		c1.5,0,2.5,0.6,3.4,1.9c0.5,0.8,0.6,0.9,1.6,0.9c0.7,0,1.3-0.2,1.9-0.6c0.7-0.5,1-0.6,1.4-0.4c0.3,0.1,0.8,0.7,1.1,1.1
		c0.3,0.5,0.9,1.2,1.2,1.5c0.6,0.6,0.8,0.7,1.9,0.5c0.7-0.1,1.5-0.1,1.8,0.1c1,0.4,1.1,0.9,0.7,3.2c-0.4,1.9-0.4,2.1,0,3.1
		c0.2,0.6,0.7,1.4,1.1,1.8c0.8,0.9,0.8,0.9,1.1,3.8c0.3,2.8,0.1,4.7-1.1,7.8c-0.5,1.3-1.3,3.4-1.7,4.6c-0.5,1.2-1.1,2.6-1.5,3
		l-0.6,0.8l0.9,0.7c1.2,0.9,2.1,2.5,3.4,5.8c1.8,4.8,2,5.4,2,7.2c0,1.5-0.1,2.2-0.9,4.7c-1.3,3.9-1.3,5.4-0.2,7
		c0.4,0.6,0.8,1.2,0.8,1.4c0,0.2-0.6,1.3-1.2,2.5c-2.8,4.8-2.8,6.9,0,9.6c1.5,1.4,2.8,2.1,3.7,2c0.6-0.1,0.6-0.2,0.7-1.3
		c0.1-1.4,0.7-2.4,1.5-2.3c0.4,0.1,0.5,0.3,0.6,1.6c0.2,2,0.3,2.2,0.8,2.2c0.9,0,4.1-2.5,4.7-3.8l0.3-0.7l-1,0.7
		c-0.5,0.4-1.2,1-1.5,1.3c-0.7,0.7-1.3,0.8-2.1,0.1c-0.8-0.6-0.9-1.5-0.5-3.3c0.5-2,0.4-3.6-0.4-4.3c-0.5-0.5-0.9-0.5-2.4-0.5
		c-1,0-1.9-0.1-2.1-0.2c-0.6-0.4,0.1-1.3,1.6-2.1c2.1-1.1,2.2-1.9,0.4-2.8c-1.2-0.6-1.5-1-1.5-2.1c0-1.2,0.8-2.3,2-2.8
		c1.5-0.5,2.1-1.4,2.1-2.8c0-1.6-0.5-2.6-1.9-3.7c-2.2-1.7-2.2-1.6-2.2-3.7c0-1.5,0.1-1.9,0.4-2.3c0.3-0.3,0.5-0.9,0.5-2.3
		c0.1-1.2,0.3-2.2,0.6-2.9c0.8-1.6,0.7-2-0.8-4.2c-0.9-1.4-1.2-2.9-1.2-6.1c0-1.4-0.1-2.7-0.2-3.1c-0.3-0.8,0-3.4,0.4-3.6
		c0.7-0.3,1.7,0.5,2.4,1.7c0.8,1.4,1,1.5,1.1,0.8c0.2-0.7,1.3-0.6,3.9,0.6c5.9,2.6,12.6,3.2,16.1,1.3c2-1.1,5.7-4.3,6.7-5.9
		c0.9-1.5,0.8-1.5-2.8-1.4c-3.7,0.1-5.9-0.1-8.4-1c-2.1-0.8-4.4-2.3-5.7-3.9c-0.6-0.7-2.1-2.1-3.4-3.2c-1.3-1.1-2.4-2.1-2.5-2.3
		c-0.1-0.2-0.3-0.3-0.5-0.3c-0.7,0-3.8-1.4-5.4-2.6c-0.9-0.6-2.1-1.3-2.6-1.6c-1.6-0.8-7.8-2.1-11.7-2.4l-2.1-0.2l-0.2-0.8
		c-0.3-1.5-0.7-2.6-2.1-4.7c-1.1-1.8-1.4-2.3-1.4-3.2c0-1.2-0.5-2.4-2.1-5c-0.8-1.3-1.4-2.6-1.7-3.8c-0.3-1-0.9-2.7-1.4-3.9
		c-1.1-2.5-1.5-3.9-1.8-6.5c-0.4-2.9-0.8-4.5-1.8-7.3c-0.5-1.3-1.1-3.5-1.4-4.9c-0.7-3.6-1-4.3-2.8-7.1c-0.9-1.4-1.7-2.8-1.8-3.2
		c-0.1-0.4-0.4-1.1-0.8-1.5c-0.3-0.4-1-1.4-1.5-2.2c-0.5-0.8-1.1-1.8-1.4-2.3c-0.3-0.4-0.5-1.1-0.5-1.4c0-1,0.5-1.3,2.2-1.2
		c3.6,0.1,6.4,2.9,10,9.9c2.9,5.6,5.3,8.4,8.2,9.9c1.2,0.6,1.9,0.8,2.7,0.8c1.4,0,1.8-0.5,2-2.1c0.1-1.3-0.1-2.6-1.4-6.5
		c-0.7-2.3-0.9-3.4-1-5.2c-0.2-2.9-0.3-3-2.9-3.9c-2.2-0.8-2.3-1.2-0.5-1.7c1.8-0.5,3.7,0,5.8,1.5c1.4,1,1.6,1.1,2.5,1
		c0.8-0.1,1.2-0.3,2.3-1.4c1.2-1.1,1.3-1.3,1.2-2.1c-0.1-0.9,0.5-2.4,1.3-3.1c0.7-0.6,1.1-1.6,1.8-4.6c1-4,0.8-7.4-0.8-10.2
		c-1.3-2.2-7.3-7.1-10.9-8.8c-3.2-1.5-3.4-1.5-20.8-1.7c-19.4-0.2-28.1-0.7-30.6-1.5c-3.6-1.2-6.2-3.5-5.8-5.1
		c0.2-0.9,1.4-2.1,2.5-2.5c2-0.8,4.9-0.2,10.4,2c5.1,2.1,8.2,2.6,14.1,2.4c5.2-0.2,9.4-0.8,10.4-1.6c0.4-0.3,0.4-0.3,0-0.7
		c-0.2-0.2-1.9-0.8-3.7-1.2c-4-1-6.1-1.9-6.1-2.4c0-0.3,0.4-0.3,3-0.2c3,0.1,6.4,0.7,9.1,1.6c1.6,0.5,5.3,0.6,6.5,0.2
		c0.8-0.3,0.9-0.9,0.4-1.5c-1.5-1.5-9.4-4.4-15.6-5.7c-3.9-0.8-6.9-1-13.3-0.9c-7.9,0.2-11.2,0.7-15,2.7c-3.1,1.6-6.7,4.9-7.9,7.3
		c-1.3,2.7-0.4,4.5,3.4,6.9c2.7,1.6,4.7,2.3,9.2,2.9c8,1.2,13.7,1.5,29.4,1.4c7.6,0,13.7,0.1,14.5,0.2c2.4,0.4,5.1,1.4,6.6,2.4
		c1.7,1.2,3.8,3.6,4.9,5.8c0.7,1.4,0.8,1.8,0.8,3.3c0,1.5-0.1,1.9-0.6,2.9c-0.9,1.6-2.7,3.6-3.6,4c-1.1,0.4-3.6,0-6.7-1.2
		c-2.1-0.8-2.9-1-5-1.1c-2.8-0.2-3.1-0.3-7.2-2.1c-4.2-1.9-10.6-4-13.8-4.6c-1.5-0.3-3,0-5.1,1c-2.1,1-3.4,2-7.6,6.2
		c-4,3.9-5.8,5.4-8.1,6.5c-4.1,2-15.7,8.7-16.8,9.6c-1.6,1.4-4.3,4.7-5.4,6.7c-2.1,3.5-2.7,6.3-3,12.9c-0.2,4.5-0.2,4.7-0.9,6.5
		c-0.8,2-2.9,5.7-5.7,10c-2.7,4.1-4.6,7.3-5.9,9.9c-2.5,5.1-3,7-3.2,14.2l-0.2,5.3l-0.8,2.4c-0.5,1.3-1.4,3.8-2.1,5.5
		c-2.6,6.3-2.6,6-2.8,17.6l-0.2,8.5l-1,1.9c-0.5,1.1-1.4,2.6-1.9,3.4c-1.3,1.9-1.6,3.4-2.1,8.8c-0.2,2.3-0.4,4.6-0.5,5.1
		c-0.1,0.8-0.4,1.3-3,4.2c-4.8,5.4-6.6,8.2-6.6,10.1c0,1-0.1,1.1-1,1.7c-1.8,1.2-4.2,4.1-5.1,5.9c-1,2.1-1.2,4.1-0.6,5.2
		c0.7,1.3,1.1,1.1,3-1.5l1.7-2.3l0.5,0.5c0.3,0.3,0.5,0.7,0.5,0.8c0,0.2-0.4,1.2-0.9,2.2c-0.5,1.1-0.9,2.2-0.9,2.5
		c0.1,0.8,0.9,0.9,5.6,0.8C189.6,336.9,190.1,336.8,191.1,336.3L191.1,336.3z M189,323.8c-0.8-0.3-2-3-1.8-4c0.2-0.9,0.4-1,1.6-0.5
		c1.2,0.5,1.8,0.4,3-0.5c1.1-0.9,1.5-1,1.9-0.5c0.4,0.4,0.3,1.1-0.2,2.2c-0.3,0.5-0.6,1.2-0.8,1.6C192,323.3,190,324.2,189,323.8z
		 M196.3,302c-0.5-0.5-0.6-0.8-0.6-2.5c0-1.1,0-2.1-0.1-2.3c-0.1-0.2,0-0.5,0.1-0.7c0.2-0.3,0.3-0.2,0.9,0.4
		c0.6,0.6,0.9,0.8,1.6,0.8c0.6,0,1.1-0.2,1.5-0.5c0.7-0.7,1.2-0.4,1.2,0.5c0,1.6-1,3.3-2.3,4.2C197.5,302.7,197,302.7,196.3,302
		L196.3,302z M268.5,300c-0.6-0.2-1.2-0.4-1.3-0.5c-0.4-0.4-0.8-3.2-0.5-3.9c0.5-1.4,2.2-0.7,2.6,1c0.2,1,0.3,1,1.1,1
		c1,0,1.3,0.4,1.3,1.7c0,0.7-0.1,0.8-0.7,0.9C270.1,300.3,269.8,300.3,268.5,300L268.5,300z M201,280.8c-0.9-0.4-1.3-1.6-1.2-4
		c0.1-2.2,1-4.3,2.2-5.1l0.8-0.5l0.6,0.7c0.3,0.4,0.8,0.7,1.1,0.7c0.8,0,2.6-1,3.8-2.2c0.6-0.6,1.7-1.6,2.4-2.2c1.6-1.4,2-2.4,2-4.7
		c0-3.1-0.2-3.7-1.7-5c-1.4-1.3-2-2.5-2-4.2c0-2,0.9-3.1,2.7-3.1c0.9,0,1.6,0.6,2.8,2.7c1.9,3.4,4.8,4.7,6.7,3.1
		c0.9-0.8,1.2-0.8,1.7-0.3c0.3,0.3,0.4,1,0.4,3.7c0,1.8,0.1,3.6,0.2,3.9c0.1,0.4,0.6,0.7,1.5,1.1c1.5,0.6,2,1.4,1.9,2.9
		c-0.1,1.2-0.8,2.1-2,2.4c-1.3,0.3-2.2,0-6.1-2.2c-1.2-0.7-2.5-0.8-3.3-0.2c-0.3,0.2-1.1,1.1-1.7,2c-0.9,1.2-1.7,1.9-3.4,3.1
		c-2.5,1.7-3.2,2.4-4.6,4.7c-1,1.6-2.3,3-2.7,3c-0.1,0-0.5,0.1-0.7,0.1C201.9,281.1,201.4,281,201,280.8L201,280.8z M237.5,231.9
		c-0.8-0.4-2-0.8-2.6-0.9c-1.5-0.3-2.3-0.8-2.7-1.4c-0.3-0.5-0.3-0.7,0-1.9c0.4-1.6,0.2-2.9-0.6-3.6c-0.4-0.4-0.8-0.4-2.4-0.4
		c-1.1,0-2.4,0.2-3,0.4c-0.5,0.2-1,0.4-1,0.4c-0.1,0,0.2-2.2,0.4-3c0.1-0.6,0.4-1,1-1.4c1.4-0.9,1.5-1.3,1.4-3.7
		c-0.2-2.8,0.2-4.2,1.1-4.2c0.1,0,0.6,0.4,1,0.9c0.6,0.6,1,1.4,1.4,2.5c0.9,2.7,1.3,3.3,2.1,3.4c1.4,0,1.4,0.1,1.4,3.4
		c0,3.6,0.2,4.1,2.6,6.5C241.1,232.3,241.1,233.6,237.5,231.9L237.5,231.9z M274.3,213.4c-0.1-0.3-0.1-1.5,0-2.7l0.2-2l-0.6-0.4
		c-0.6-0.4-1.2-0.4-5.3-0.4c-4.1,0-4.8-0.1-5.6-0.4l-0.9-0.4l0.7-0.2c0.4-0.1,1.7-0.2,2.8-0.2c2.5,0,3.5-0.3,4.5-1
		c3-2.2,2.4-5-2-9.4c-2.7-2.8-3.2-3.5-3.1-4.9l0.1-1l1.1,1.2c0.6,0.6,1.5,1.8,1.9,2.5c1.2,2.2,5.4,7.9,6.9,9.6
		c2.3,2.5,3.1,4.7,2.7,7.1c-0.2,1.3-1.5,2.9-2.5,3.1C274.6,214,274.5,213.9,274.3,213.4L274.3,213.4z M269.4,176.8
		c-0.3-0.3-0.8-1-1.1-1.4c-0.3-0.4-1-1.3-1.6-2c-1.3-1.5-1.5-2-0.9-2.6c0.6-0.6,3.2-0.6,4.3,0c1.1,0.6,2,2.5,2.2,4.6l0.1,1.7
		l-0.7-0.2c-0.5-0.1-0.7-0.1-0.8,0.2C270.8,177.7,270,177.5,269.4,176.8L269.4,176.8z M262.8,144.3c-0.2-0.1-0.9-0.3-1.5-0.6
		c-1.3-0.6-1.6-1.2-0.9-1.8c0.7-0.5,1.2-0.5,2.3,0.1c0.5,0.3,1.6,0.5,2.3,0.6c1,0.1,1.6,0.3,2.2,0.7c0.9,0.6,1,0.9,0.5,1.1
		C267.3,144.5,263.4,144.5,262.8,144.3L262.8,144.3z M216.1,324.7c1.6-0.8,3-2.5,4.3-5c0.6-1.2,1.5-2.6,2.2-3.2
		c1.3-1.4,1.6-1.9,2.2-4.2c0.6-2.2,1.6-4.3,3.4-7c2.1-3.1,3-4,5.7-5.5c4.3-2.3,4.5-2.6,4.8-5.9c0.1-1.3,0.3-2.6,0.5-3
		c0.4-0.8,2.6-2.8,4.3-4l1.3-0.9h-6.3c-4.9,0-6.6,0.1-7.8,0.4c-0.9,0.2-2,0.3-2.7,0.3l-1.1-0.1l-1.4,3.6c-0.8,2-1.4,3.8-1.4,4
		c0,0.8-0.7,3.4-1.1,4.3c-0.6,1.2-4.4,5.3-5.5,5.8c-0.5,0.2-1.2,0.5-1.5,0.5c-0.8,0-1.7,0.7-2.1,1.6c-0.2,0.4-1,1.2-1.9,1.8
		c-2,1.5-4.5,3.8-5.2,4.9c-0.8,1.2-1.1,3-1.1,5.4c0,2.5,0.5,4.6,1,4.6c0.2,0,1.1-0.5,2-1.2c2.6-1.9,3.1-1.5,1.5,1.2
		c-0.5,0.8-0.9,1.6-0.9,1.8c0,0.5,1.6,0.8,3.6,0.7C214.5,325.3,215.1,325.2,216.1,324.7L216.1,324.7z M218.3,312.1
		c-1.5-1.1-2.8-2.5-2.8-2.9c0-0.2,0.5-0.7,1.4-1.1l1.4-0.7l0.9,0.6c1.3,0.8,2.3,0.9,3.8,0.4c1.7-0.6,1.8-0.5,1.6,1
		c-0.1,0.7-0.3,1.5-0.5,1.8c-0.4,0.7-1.8,1.4-3.5,1.5C219.3,312.8,219.1,312.7,218.3,312.1L218.3,312.1z M242.1,312.5
		c0.5-0.1,0.3-0.2-1-0.2c-1.5,0-1.7-0.1-1.6-0.4c0-0.2,0.6-0.7,1.2-1c0.6-0.3,1.3-0.7,1.4-0.8c0.1-0.1,0.2-1,0.2-2
		c0-2.2,0.3-2.6,2-3c1.2-0.2,1.7-0.7,1.7-1.6c0-0.4-0.2-0.6-1-1c-1.2-0.6-1.7-1.3-1.1-1.8c0.2-0.2,1.2-1.1,2.3-2
		c1.7-1.5,1.9-1.8,2.2-2.8c0.6-2.3,1.1-5.1,0.9-5.6c-0.2-0.6-1-1.5-1.4-1.5c-0.2,0-0.5-0.2-0.8-0.5c-0.3-0.3-0.5-0.4-0.5-0.2
		c0,0.2-0.7,1.4-1.5,2.8c-0.8,1.4-1.9,3.4-2.4,4.4c-0.8,1.7-1.1,2-2.3,2.9c-3.4,2.4-5.3,5.4-5.8,9.5c-0.2,1.9-0.1,3.2,0.4,3.2
		c0.2,0,0.9-0.5,1.5-1c0.7-0.6,1.4-1,1.6-1c0.4,0,0.4,0.2,0.2,1.6l-0.2,1.6l0.8,0.2C240,312.7,241.2,312.8,242.1,312.5L242.1,312.5z
		 M312.9,233c0.4-0.3,1.2-1.2,1.8-2l1-1.4l-0.6-0.7c-2.3-2.8-3.7-5-4.8-7.2c-0.7-1.4-1.3-2.7-1.2-2.9c0-0.6,0.7-1.3,2.1-2.2
		c3.1-2,3.4-2.8,3.5-8.8c0.1-2.8,0-4.9-0.2-5.8c-0.4-1.9-1.4-4-2.8-5.6l-1.2-1.3l-0.9,0.3c-1.1,0.3-2.7,1.9-3.3,3.2
		c-0.6,1.3-0.5,2.9,0.3,6c0.5,1.9,0.7,3.3,0.7,4.5c0,2.1-0.1,2.6-1.1,6.7c-1,4.1-1.3,6.3-1.3,9.8c0,3,0.3,4.5,1.2,5.8
		C307.7,233.6,311.1,234.4,312.9,233z M121.6,145.5c2.1-1.1,7.6-3.5,12.2-5.2l3.9-1.5l0-3.2c0-1.8-0.1-3.2-0.2-3.2
		c-0.3,0-6.9,2.7-9.2,3.8c-1,0.5-1.9,0.8-2,0.8c-0.1,0-0.2-7.1-0.2-16.3c0-9-0.1-16.3-0.2-16.3c-0.1,0-1.7,0.7-3.5,1.6l-3.3,1.6
		l-0.1,19.2c-0.1,10.5-0.1,19.2,0,19.3C119.2,146.5,120.2,146.3,121.6,145.5L121.6,145.5z M384.7,137.4c0-4.5-0.1-13.3-0.2-19.4
		l-0.2-11.2l-2.9-1.3c-1.6-0.7-3.2-1.3-3.6-1.3l-0.6,0v19.2v19.2l1,0.3c0.5,0.1,2.1,0.8,3.6,1.4s2.7,1.1,2.8,1.2
		C384.7,145.6,384.8,142.8,384.7,137.4L384.7,137.4z M372.2,112.8l0-10.8l-2.6-0.9c-1.4-0.5-2.7-1-2.9-1.1c-0.2-0.1-0.7-0.2-1.1-0.2
		h-0.7l0,9.8c0,5.4,0,9.9,0,10c0.2,1.3-1-1.2-5-11.2c-3.5-8.6-4.7-11.5-5.1-11.7c-0.9-0.4-5.1-1.4-5.8-1.4h-0.7v19.4v19.4h0.6
		c0.5,0,4.9,1,6.5,1.5c0.4,0.1,0.4-0.5,0.3-11.7c-0.1-8.2-0.1-11.8,0.1-11.6c0.1,0.1,2.6,6.1,5.6,13.4l5.3,13.2l2.6,0.8l2.6,0.8
		l0.1-8.5C372.1,127.4,372.2,118.7,372.2,112.8L372.2,112.8z M140.8,137.9c0.4-0.2,1.7-0.7,2.9-1c1.2-0.4,2.3-0.7,2.3-0.8
		c0,0,0.5-2.5,1.1-5.5l1.1-5.5l1-0.3c3.6-1.1,6-1.6,6.1-1.3c0.1,0.2,0.6,2.3,1.2,4.7c0.5,2.4,1.1,4.5,1.1,4.6
		c0.1,0.1,1.6-0.2,3.4-0.6c2.7-0.6,3.3-0.8,3.2-1.2c0-0.2-0.9-3.2-1.9-6.7c-1-3.5-3.3-11.4-5.1-17.7c-1.8-6.3-3.3-11.5-3.4-11.5
		c-0.1-0.1-1.1,0.2-2.4,0.5c-1.3,0.3-2.6,0.6-2.9,0.7c-0.5,0.1-0.6,0.3-3.3,12.6c-1.5,6.9-3.6,16.3-4.6,20.7
		c-1.8,8.1-1.8,8.2-1.3,8.4C140,138.3,140,138.3,140.8,137.9z M149.2,120c0-0.4,2.3-11.7,2.4-12.1c0.2-0.4,0.4,0.6,1.8,6.5l1,4.3
		l-0.9,0.2c-1,0.3-3.1,0.9-3.8,1.1C149.4,120.2,149.2,120.2,149.2,120z M343.5,113.4l0.1-19.2l-1.3-0.3c-0.7-0.1-2.4-0.5-3.7-0.8
		c-1.3-0.3-2.6-0.5-2.8-0.5c-0.4,0-0.4,0.8-0.5,13.9c-0.1,13.4,0,24.6,0.2,24.8c0.2,0.2,7.5,1.6,7.6,1.4
		C343.3,132.6,343.4,123.9,343.5,113.4L343.5,113.4z M170.9,130c1.6-0.3,2.9-0.6,3-0.6c0,0,0.1-4.4,0.1-9.8c0-7.3,0.1-9.6,0.3-9.2
		c0.1,0.3,1.7,4.4,3.4,9.2c1.7,4.7,3.2,8.6,3.4,8.6c0.7,0,0.7,0.2,5.4-16.2c0.6-2.2,1.3-4.1,1.4-4.3c0.1-0.1,0.2,4.2,0.2,9.5
		c0,5.4,0.1,9.7,0.2,9.7c0.3,0,5.3-0.7,6.1-0.8l0.7-0.1l-0.1-18.6c0-10.3-0.1-19-0.2-19.4c-0.1-0.7-0.2-0.8-0.8-0.6
		c-1.9,0.3-5.2,0.7-5.7,0.6c-0.3-0.1-0.6,0-0.7,0c-0.1,0.1-1.5,4.7-3.2,10.2c-1.7,5.5-3.2,10.4-3.3,10.8c-0.1,0.4-0.3,0.7-0.3,0.7
		c-0.1-0.1-1.5-4.3-3.3-9.4c-1.7-5.1-3.2-9.4-3.3-9.6c-0.1-0.2-0.9-0.1-2.8,0.3c-1.5,0.3-3,0.5-3.4,0.5l-0.7,0l-0.2,7.3
		c-0.1,4-0.2,12.7-0.2,19.4c0,12.9-0.1,12.1,0.9,12.3C167.9,130.6,169.3,130.4,170.9,130L170.9,130z M330.4,110.9l0.1-19.3l-0.5-0.1
		c-2.2-0.5-5.6-1.1-6.2-1.1H323l0.1,7.5c0.1,7.3,0.1,7.5-0.3,7.5c-0.2,0-2.1-0.3-4.2-0.6c-2.1-0.3-3.8-0.6-3.9-0.6
		c-0.1,0-0.2-3.4-0.2-7.6v-7.6l-0.5-0.1c-1-0.2-5.7-0.8-6.4-0.8h-0.6v19.3v19.3l3.6,0.5c2,0.3,3.6,0.4,3.7,0.4c0.1,0,0.1-4,0-8.9
		l-0.1-8.8l0.5,0.1c0.3,0.1,2.2,0.4,4.2,0.6l3.7,0.5v9v9l0.7,0c0.4,0,2,0.3,3.6,0.5c1.6,0.3,2.9,0.5,3.1,0.5
		C330.3,130.2,330.4,123.6,330.4,110.9L330.4,110.9z M295.4,126.1c3.4-0.9,5.7-3.1,6.8-6.6c0.4-1.2,0.4-2.2,0.4-7.8v-6.4h-5.2h-5.2
		v1.1c0,0.6-0.1,1.9-0.1,2.9l-0.1,1.8h2.2h2.2l-0.1,3.1c-0.1,2.9-0.1,3.1-0.7,4c-1.7,2.6-5.1,2.1-7.2-0.9c-1.5-2.2-1.5-2.7-1.5-12.5
		c0-8.6,0-8.8,0.5-9.7c0.6-1.1,1.9-2.3,2.7-2.5c0.3-0.1,0.7-0.2,0.9-0.2c0.5-0.2,1.9,0.4,2.7,1.1c1,0.9,1.6,2.2,1.8,3.5l0.1,1h3.4
		c3.9,0,3.6,0.2,3-2.3c-1.1-5.3-5.3-8.7-10.6-8.7c-5.2,0-9.5,3.3-11.1,8.6c-0.2,0.8-0.3,3.2-0.3,10.1c0,10.1,0.1,11.3,1.5,14
		c0.9,1.7,2.7,3.9,4.4,4.9c1.2,0.8,3.4,1.7,4.7,1.9C291.9,126.5,294.2,126.4,295.4,126.1L295.4,126.1z M209.6,124.8
		c7.8-0.7,8.3-0.8,10.2-3c3.6-3.9,4.1-12.1,0.9-15.4c-0.7-0.7-2.2-1.5-2.9-1.5c-0.3,0-0.1-0.2,0.5-0.5c3.4-1.7,4.4-8.9,2-14.2
		c-0.9-2-2.3-3.4-4-4.2l-1.3-0.6l-3.7,0.3c-3.8,0.3-11.2,1-11.3,1.1c0,0-0.1,8.8-0.2,19.4l-0.2,19.4l2.1-0.1
		C203,125.4,206.5,125.1,209.6,124.8z M206.6,119.4c-0.1-0.1-0.2-2.6-0.2-5.5v-5.4l3.3-0.1l3.3-0.1l0.7,0.7c0.4,0.4,1,1.3,1.4,2
		c0.5,1.1,0.6,1.6,0.6,3.4c0,1.9-0.1,2.2-0.6,3.2c-1,1.7-1.5,1.9-5.3,2C208.2,119.5,206.7,119.5,206.6,119.4L206.6,119.4z
		 M207.7,102.5l-1.3-0.1l0.1-5l0.1-5l3.1-0.1l3.1-0.1l1,1.2c2.5,2.8,2.2,7.3-0.5,8.7C212.2,102.7,211.4,102.7,207.7,102.5
		L207.7,102.5z M240.5,124c4.7-1,8-4.4,8.5-8.9c0.1-0.9,0.2-5.8,0.2-10.9c-0.1-10.2-0.1-10.5-1.6-13.4c-0.9-1.7-3-3.9-4.6-4.8
		c-1.5-0.8-3.5-1.4-5.3-1.5c-4-0.3-8.3,2.7-10.5,7.2c-1.6,3.2-1.6,4-1.5,14.5c0.2,9.9,0.3,10.7,1.4,12.9
		C229.3,123.1,235.1,125.2,240.5,124L240.5,124z M235.6,118.1c-1.3-0.5-2.2-1.2-2.8-2.3l-0.6-1l0-9.7l0-9.7l0.6-1.3
		c1.6-3.3,5.4-3.9,8.1-1.3c1,1,1.6,2.3,1.9,3.9c0.1,0.8,0.2,5,0.3,9.5c0.1,8,0.1,8.1-0.4,9.2C241.3,117.8,238.2,119,235.6,118.1
		L235.6,118.1z M276.5,123.9c0-0.2-1.5-4.1-3.3-8.7c-1.8-4.6-3.3-8.5-3.3-8.6c0-0.1,0.4-0.3,0.8-0.4c3.4-0.6,5.3-4,5.3-9.2
		c0-5-2.1-9.5-5.2-11.4c-1.2-0.7-3-0.9-11.8-1.1l-5.5-0.2v19.4v19.4l0.7,0.1c0.4,0.1,2,0.1,3.5,0.2l2.8,0l0-8.3l0-8.3l1.9-0.1
		l1.9-0.1l2,6.6c1.1,3.7,2.3,7.5,2.6,8.5l0.6,1.8l2.5,0.1c1.4,0,2.6,0.1,2.8,0.1C275.7,124.2,276.5,124.1,276.5,123.9L276.5,123.9z
		 M260.5,101.6c-0.1-0.1-0.2-2.5-0.2-5.4V91l2.8-0.2c3.1-0.2,4,0,5.2,1.2c2,1.9,1.9,7.2-0.2,9.1l-0.8,0.7H264
		C262.2,101.8,260.6,101.7,260.5,101.6z"/>
	<path id="path3032" class="st4" d="M246.2,416.6c-7.6-4.7-26.5-20.1-39.2-31.9c-20.8-19.4-41.7-45.3-56-69.5
		c-30.4-51.6-46.1-111.7-48-182.9c-0.5-20.8-0.5-21.5,1.5-25.6c2.6-5.5,5-7.1,17.4-12c34.4-13.4,70.7-19.7,120.4-20.6
		c56.1-1.1,102.5,5.7,139.9,20.4c12.9,5.1,15.2,6.7,17.9,12.2c2,4.2,2,4.8,1.5,26.1c-3,117-43.2,203.8-125.1,270.4
		c-9.9,8.1-20.3,15.5-22.9,16.3C252.4,419.9,250,419,246.2,416.6L246.2,416.6z M191.2,336.8c1.4-0.7,2.5-2.4,3.2-5.3
		c0.6-2.4,1.8-5,2.5-5.9c0.9-1,1.6-4.1,1.8-7.8c0.3-5.4,0.8-6.6,3.9-10.6c2-2.6,4.1-6.7,4.9-9.7c0.8-2.9,2.1-6.5,2.9-8
		c5.8-11.4,9.6-18,10.2-18c2,0,3.6,4.4,3.6,9.9c0,4.3,0.4,6,1.5,6.6c1.3,0.7,1.3,1.1,0.1,3.5c-0.7,1.5-1.6,3.9-2,5.4
		c-0.9,3.7-3.8,7.7-6.8,9.3c-1.4,0.7-4.4,3.2-6.7,5.5c-3.3,3.3-4.2,4.8-4.2,7.2c0,4.1,1.3,6.2,2.8,4.6c1.8-1.9,2.7-1.3,2,1.3
		c-0.6,2.4-0.5,2.4,2.4,1.8c3.8-0.8,7.2-3,7.8-5c0.3-0.9,0.8-2.2,1.3-2.9c0.4-0.8,2.1-4.2,3.7-7.7c2-4.3,4.2-7.4,7-9.7
		c2.2-1.9,4.6-4.8,5.4-6.6c2.1-5.2,8.4-9.7,8.4-6c0,2.2-3.5,8.7-6.1,11.3c-3.2,3.3-5.7,7.7-5.7,10.1c0,2.1,1.3,2.8,2.3,1.2
		c1-1.6,2.1-1,1.6,0.9c-0.4,1.6,0,1.8,2.3,1.8c4.7,0,9-2.7,9.7-5.9c0.3-1.6,1.4-4.2,2.3-5.8c1.1-1.9,1.6-3.7,1.2-5.3
		c-0.6-2.5,1.1-8.9,2.3-8.9c0.9,0,4.2,6.9,5.1,10.6c0.3,1.5,1.4,3.7,2.4,4.8c1.7,1.9,2.4,2,10.5,1.5c8.4-0.5,8.8-0.6,11-3.3
		c1.6-2.1,2.4-4.4,2.8-8.4c0.7-7.1,3.7-12,10.8-17l5.3-3.8l1.3,2.1c0.7,1.1,2.3,4.5,3.4,7.4c2,4.9,2,5.7,1,9.9
		c-0.6,2.5-0.9,5.4-0.5,6.5c0.3,1.1-0.1,3.9-1,6.5l-1.6,4.6l2.1,2.3c2.4,2.6,4.1,3,4.9,0.9c0.7-1.8,2.4-1.8,2.4,0.1
		c0,2,1.8,1.2,3.8-1.5c1.6-2.1,1.6-2.5,0.2-6.4c-0.8-2.3-1.2-4.8-1-5.7s0-3.4-0.5-5.5c-1.1-5-1.1-10.8,0.2-16.9
		c0.9-4.3,0.8-5.2-1.3-9.7c-1.2-2.7-2.1-5.1-1.9-5.4c0.2-0.2,1.9,0.2,3.8,1c8.8,3.5,15.7,2.7,19.8-2.3l2.5-3l-5.4-0.5
		c-6.1-0.5-6.4-0.7-12.8-6.4c-4.5-4-4.7-4.4-4.2-8c0.3-2.1-0.2-6.8-1-10.8c-1.4-6.5-1.4-7.4-0.1-12.1c0.8-2.8,1.4-6.3,1.4-7.8
		c0-4.5-2.4-11.3-5.3-15c-1.5-1.9-3.1-5.1-3.7-7.1c-0.5-2-2-5.2-3.2-7.1c-2.1-3.1-2.1-3.5-0.9-6.6c0.7-1.8,1.3-5.5,1.3-8.3
		c0-4.4-0.4-5.5-2.9-8.5c-5.6-6.4-8.2-7-34.7-7.8c-30.6-0.9-35.4-2.1-30.7-7.4c1.9-2.2,5.1-2.1,11.7,0.2c7.2,2.6,16,3.2,21.2,1.5
		c4.4-1.4,4.5-1.4-3.2-3c-1.2-0.3-2.3-0.9-2.3-1.5c0-0.7,1.4-0.8,4.3-0.4c11.9,1.6,13.8,1.7,13.8,0.8c0-1.5-8-4.6-16.3-6.3
		c-13.4-2.8-26.2-0.5-32.3,5.7c-3.7,3.8-4.2,7.9-1,9.9c3.9,2.6,10.4,3.4,33.4,4.1c21.1,0.7,23.6,0.9,27.3,2.7
		c4.5,2.2,6.5,5.1,6.3,9.4c-0.1,3.6-2.4,7.3-4.5,7.3c-3.5,0-15.2-3-23.5-6c-4.9-1.8-9.7-3.2-10.7-3.2c-2.3,0-4.9,1.8-12.7,8.5
		c-3.4,2.9-9.4,7-13.4,9.1c-12.9,6.8-16.8,12.2-18.6,25.4c-1,7.1-2.2,10-7.7,18.3c-4.6,6.9-7.8,16.2-7.9,22.5c0,3-1.1,7.9-2.8,12.9
		c-2.3,6.7-2.8,9.7-3,17.3c-0.2,7.9-0.5,9.8-2.5,13.5c-1.4,2.7-2.6,6.6-3,10.4c-0.6,5.6-1,6.6-5.1,11.4c-2.4,2.9-4.5,5.8-4.5,6.4
		c0,0.6-1.2,2.6-2.7,4.3c-3.5,4-5.2,8.6-3.7,10.1c0.8,0.8,1.4,0.5,2.4-1c2-2.9,3.1-2.5,2.2,0.7c-0.5,1.9-0.4,2.9,0.3,3.2
		C183.3,338.8,188.5,338,191.2,336.8L191.2,336.8z M260.6,143.1c-2.5-1.6-0.1-2.1,3.8-0.7l3.9,1.4l-3.2,0.1
		C263.3,143.9,261.3,143.5,260.6,143.1z M129.8,141.9c7-2.6,7.5-2.9,7.5-5.5c0-1.5-0.1-2.7-0.3-2.7c-0.2,0-2.7,0.8-5.6,1.8
		c-2.9,1-5.4,1.8-5.6,1.8c-0.2,0-0.3-7.3-0.3-16.2s-0.1-16.2-0.3-16.2c-0.2,0-1.6,0.5-3.2,1l-2.9,1v19.4c0,18.1,0.1,19.4,1.6,18.8
		C121.6,145,125.7,143.5,129.8,141.9z M385.6,126.5v-19.3l-2.9-1c-1.6-0.6-3-1-3.2-1c-0.2,0-0.3,8.7-0.3,19.3v19.3l2.9,1
		c1.6,0.5,3,1,3.2,1.1C385.5,145.8,385.6,137.1,385.6,126.5L385.6,126.5z M371.8,121.2l-0.2-19.1l-2.5-0.7l-2.5-0.7l0,10.3
		c0,11.8-0.1,11.8-5.5-2.2c-4-10.2-5.3-12-8.7-12h-2.1v18.9c0,14.5,0.3,18.9,1.1,18.9c0.6,0,2,0.3,3.1,0.6c2,0.5,2,0.4,2.3-10.7
		l0.3-11.2l5,12.6c2.7,6.9,5.6,13,6.3,13.4C372,141.5,372.1,141,371.8,121.2z M145.5,136.9c0.3-0.2,0.9-2.6,1.2-5.4
		c0.7-5.7,0.6-5.6,5.2-6.5l3.3-0.6l1.1,4.7c1.1,4.6,1.2,4.6,4,4.1c1.6-0.3,3-0.7,3.2-0.9c0.5-0.4-8.1-34.7-8.9-35.5
		c-0.3-0.3-1.8-0.2-3.3,0.2c-2.8,0.8-2.8,0.9-6.2,15.8c-1.9,8.3-3.9,17.4-4.6,20.4l-1.2,5.4l2.9-0.6
		C143.7,137.6,145.2,137.1,145.5,136.9z M149.5,118.2c0.3-1,0.9-3.6,1.2-5.8l0.7-4l1.2,5c1,4.2,1,5.1-0.1,5.8
		C150.4,120.5,148.9,120.1,149.5,118.2L149.5,118.2z M343.9,114c0-10.4-0.3-19-0.7-19.3c-0.4-0.2-1.8-0.7-3.2-1l-2.5-0.6v19.3v19.3
		l2.5,0.4c1.4,0.2,2.8,0.4,3.2,0.5C343.6,132.8,343.9,124.4,343.9,114L343.9,114z M172.8,130.6c0.9-0.3,1.1-2.1,0.9-6.7
		c-0.2-3.4-0.2-7.9,0-9.9c0.3-3.4,0.6-2.9,3.8,6.9l3.5,10.5l3.3-11.8l3.3-11.8l0.3,10.4c0.2,8.9,0.5,10.3,1.7,9.8
		c0.8-0.3,2.2-0.5,3.1-0.5c1.7,0,1.7-0.9,1.7-19.2V88.9l-3.1,0.4c-3,0.4-3.1,0.5-5.5,8.4c-1.3,4.4-2.9,9.6-3.6,11.7L181,113
		l-2.9-9.7c-1.6-5.3-3.3-10-3.7-10.5c-0.4-0.4-2-0.5-3.5-0.2l-2.8,0.6v18.9c0,18,0.1,18.9,1.7,18.9
		C170.8,131,172.1,130.8,172.8,130.6z M330.1,110.9l-0.2-19.2l-2.5-0.3l-2.5-0.3v7.5v7.5l-3.9-0.5c-6.3-0.9-6.1-0.6-6.1-8.7
		c0-5.3-0.3-7.4-1.1-7.4c-0.6,0-2.1-0.3-3.2-0.6l-2-0.6v19.4v19.4l3.2,0.4l3.2,0.4v-8.6c0-9.5-0.3-9.2,6.6-8l3.4,0.6v8.6
		c0,7.4,0.2,8.6,1.6,9C330.5,130.5,330.4,131,330.1,110.9L330.1,110.9z M216,124.2c3.7-1.8,5.8-5.6,5.9-10.7
		c0.1-3.6-0.4-5.1-1.9-6.6c-1.9-2-1.9-2-0.2-4.9c2.1-3.5,2.2-7.1,0.4-10.7c-1.7-3.4-6.1-4.6-13.6-3.8l-5.4,0.6l-0.2,19.3l-0.2,19.3
		l6.6-0.6C210.9,125.6,214.8,124.8,216,124.2L216,124.2z M207,114.6c0-4.8,0.2-5.6,1.9-6c5.1-1.4,8.7,3.8,6.1,8.5
		c-1,1.8-2.2,2.4-4.7,2.7l-3.4,0.3V114.6z M207,98.2v-5.1h3c3.6,0,5.2,1.4,5.2,4.7c0,2.9-1.2,4.1-5.2,4.9l-2.9,0.6V98.2z
		 M299.2,124.1c2.4-1.6,3.9-6.5,3.9-12.7c0-4.9-0.1-4.9-6.6-5.6l-4.3-0.4v3.1c0,2.7,0.3,3.1,2.3,3.1c1.8,0,2.3,0.5,2.3,2.4
		c0,5.5-4.3,7.9-7.6,4.3c-4.4-5-3.5-24.1,1.3-25.6c2-0.6,5.3,1.8,5.3,3.9c0,0.8,1.1,1.2,3.2,1.2c3.6,0,4-1.2,1.8-5.5
		c-1.9-3.8-4.8-5.6-9.1-5.6c-7.8,0-11.3,5.9-11.3,18.9c0,8.6,1.3,14,4.1,17.2C287.8,126.4,294.8,127,299.2,124.1L299.2,124.1z
		 M243.1,123.1c1.1-0.8,2.9-3.2,4-5.3c2.8-5.6,2.9-19.5,0.1-25.7c-1.9-4.2-5.6-7.2-8.9-7.2c-3.2,0-7.4,3-9.4,6.6
		c-4.2,7.6-3.4,24.5,1.5,30.4c1.9,2.3,2.9,2.7,6.5,2.7C239.2,124.6,242,123.9,243.1,123.1L243.1,123.1z M234.5,116.5
		c-1.2-1.8-1.7-4.8-1.9-10.8c-0.2-7.1,0-8.8,1.6-11.4c2.3-3.8,5.3-3.7,7.3,0.3c2,4.1,1.9,18.7-0.2,22
		C239.2,119.7,236.5,119.7,234.5,116.5L234.5,116.5z M260.5,116c0-7.8,0.1-8.1,1.9-7.8c1.5,0.2,2.5,1.9,4.7,8.4l2.8,8.1h3.4h3.4
		l-3-8.7l-3-8.7l2.4-2.3c3-2.9,3.9-7,2.6-11.8c-1.4-5.3-5-7.2-13.7-7.2l-7,0l-0.3,19c-0.1,10.5-0.2,19.1-0.1,19.2
		c0.1,0.1,1.4,0.2,2.9,0.2h2.8V116L260.5,116z M261.2,101.9c-0.4-0.4-0.7-3-0.7-5.7v-5l3.8,0.5c5.4,0.7,7.7,4.6,5,8.3
		C268.1,101.6,262.3,103,261.2,101.9z M91.2,127.3c0-1.3,0.2-1.8,0.5-1.2c0.3,0.6,0.3,1.7,0,2.3C91.4,129.1,91.2,128.6,91.2,127.3z
		 M91.3,119c0-2.8,0.2-3.9,0.4-2.5c0.2,1.4,0.2,3.7,0,5.1C91.5,123,91.3,121.8,91.3,119z"/>
	<path id="path3030" class="st5" d="M243.6,412.1c-22.3-16.2-50.1-42.5-65.7-62.2c-47.2-59.5-69.5-126.4-72.9-218.4
		c-0.9-24.4,0.3-27.4,13.6-33.1c34.7-14.8,79.3-22.2,133.7-22.2c41,0,69.6,3.2,101.1,11.4c14.2,3.7,34.2,10.7,39.2,13.9
		c3.8,2.3,6.3,6.7,7.1,12c0.8,5.3-1,42.7-2.9,59.1c-9.6,84.8-40.1,150.4-95.6,205.3c-17.8,17.6-44.8,39.4-48.9,39.4
		C251.5,417.3,247.5,414.9,243.6,412.1L243.6,412.1z M191.4,337c2.1-1.3,3.1-2.7,3.5-5.3c0.3-1.9,1.4-4.5,2.3-5.7
		c1.2-1.6,1.7-3.8,1.7-8c0-5.4,0.2-6.1,3.7-10.3c2.5-3.1,4.3-6.7,5.8-11.6c1.2-3.9,3-8.3,3.9-9.7c1-1.4,3.1-5.2,4.6-8.3
		c1.6-3.2,3.2-5.8,3.6-5.8c1.9,0,3.2,3.2,3,7.7c-0.2,5.7,0.4,8,2.2,8c1.1,0,1.1,0.4-0.1,2.7c-0.8,1.5-1.4,3.2-1.4,3.9
		c0,2.8-4,9.2-6.9,11.1c-1.8,1.1-4.1,2.9-5.2,4c-1.1,1.1-2.9,2.7-4,3.6c-1.8,1.5-2.4,4.1-2,8.5c0.3,2.7,1.6,3.8,2.9,2.5
		c1.7-1.7,2.7-1.3,1.6,0.7c-0.9,1.7-0.7,1.8,2,1.8c3.4,0,8.9-3,8.9-4.9c0-1.3,6.4-14.3,8.7-17.6c0.6-0.9,2.4-2.5,4-3.5
		c1.5-1,3.5-3.3,4.3-5.2c2-4.6,4.7-7.6,6.8-7.6c0.9,0,1.7,0.2,1.7,0.5c0,1.6-5.6,11.4-6.7,11.8c-1.7,0.7-6.2,9.6-5.5,10.8
		c0.7,1.2,3.2,1.1,3.2,0c0-0.5,0.4-0.9,0.9-0.9c0.5,0,0.6,0.7,0.3,1.5c-0.8,2.1,1.2,3,4.8,2.2c4.7-1.1,7.6-3.4,7.6-6
		c0-1.3,0.9-3.5,1.9-5c1.5-2,1.8-3.5,1.4-6c-0.5-3.3,0.8-7.8,2.2-7.8c1,0,3.1,4.4,4.4,9.2c1.8,6.8,2.5,7.2,12.8,7.2
		c6.9,0,9.3-0.3,10.1-1.4c0.6-0.7,1.9-2.2,2.8-3.3c1.2-1.4,1.8-3.4,1.9-7.2c0.1-4.4,0.7-6,3.2-9.7c3.9-5.5,11.4-11,13.1-9.6
		c0.6,0.5,2.2,3.7,3.6,7.1c2.2,5.6,2.3,6.5,1.3,10.1c-0.6,2.2-0.9,5.1-0.6,6.5c0.3,1.4-0.1,4-0.8,5.7c-1.8,4.4-1.6,6.3,0.9,8.9
		c2.8,2.8,4,2.9,5,0.2l0.8-2.1l0.9,2.3l0.9,2.3l2.4-2.5c2.7-2.8,3-5.1,1.1-8.9c-0.7-1.4-1.1-3.5-0.8-4.6c0.3-1.1,0-4.5-0.6-7.6
		c-0.9-4.5-0.9-7,0-13.1c1.1-7.2,1.1-7.8-0.8-11.2c-2.9-5.5-2.6-6.1,2.6-4.1c7.8,3,16.1,1.8,19.4-3c2.3-3.3,1.9-4.5-1.2-3.9
		c-4.8,1-8.7-0.5-14-5.2l-5.1-4.6l-0.5-8.1c-0.5-8.5-0.5-13.4-0.1-26.9c0.2-8.1,0.2-8.2-3.4-13.6c-2-3-4.3-7.4-5.1-9.9
		c-0.8-2.4-2.4-5.4-3.5-6.6c-1.9-2.1-1.9-2.3-0.6-5c4.3-8.5,1.7-16.9-6.7-21.7l-4.9-2.8l-23.2-0.7c-29.4-0.9-35-2-32.7-6.4
		c1.5-2.9,4.7-3,12.6-0.4c8,2.6,16.7,3.1,21.7,1.4c3.3-1.2,3-2.7-0.7-2.7c-1.4,0-3.3-0.6-4.3-1.4c-1.6-1.3-1.5-1.4,1.9-0.9
		c11.1,1.5,15,1.7,15,0.6c0-0.6-1.7-1.8-3.9-2.8c-13.1-5.7-29.7-6.3-39.3-1.5c-4.8,2.5-9.5,7.3-9.5,9.8c0,1.7,4.4,5.2,7.8,6.3
		c1.9,0.6,14.1,1.5,27.1,2c25.4,1,29.7,1.8,33.1,6.1c2.4,3.2,2.3,7.9-0.2,10.9l-2.1,2.4l-7.1-1.5c-3.9-0.8-10.6-2.8-14.9-4.4
		c-13.6-5-13.6-4.9-24.4,4.2c-3.6,3.1-10.8,7.9-15.8,10.8c-12.9,7.2-15.5,11.3-17.5,27.8c-0.4,3.1-1.9,6.4-5.2,11.5
		c-6.9,10.8-8.9,15.8-9.8,25c-0.5,4.8-1.9,11.3-3.5,15.9c-2.3,6.5-2.7,9.3-2.8,16.3c0,7.2-0.3,9-2.2,12.5c-1.2,2.2-2.5,6.1-2.8,8.7
		c-1,7.8-1.3,8.6-5.4,13.3c-2.2,2.5-4.3,5.5-4.6,6.7c-0.4,1.2-1.8,3.5-3.2,5.2c-2.9,3.4-4,6.8-3.1,9.2c0.5,1.4,0.9,1.3,2.9-1.2
		l2.3-2.8l-0.6,3.5l-0.6,3.5l3.9,0C186.8,338.8,189.7,338,191.4,337L191.4,337z M260.9,143c-0.9-1.5-0.2-1.6,3.2-0.3l3.2,1.2
		l-2.9,0.1C262.8,143.9,261.3,143.5,260.9,143L260.9,143z M122.2,222.2c-4.2-22.2-7-47.3-8.4-75.9c-1.5-30.1-1.5-30.5-3.2-33.1
		c-0.9-1.4-1.9-2.5-2.4-2.5c-2.6,0,0.8,52.4,5.2,79.4c2.5,15.5,8.2,38.8,9.4,38.8C123.1,228.9,122.9,225.9,122.2,222.2L122.2,222.2z
		 M138.2,136.3c0-1.9-0.1-3.5-0.3-3.5s-2.7,0.8-5.6,1.8c-2.9,1-5.5,1.6-5.7,1.4c-0.3-0.3-0.7-7.3-0.9-15.7
		c-0.2-8.4-0.7-15.2-1.1-15.2c-0.4,0-1.8,0.4-3.1,0.9l-2.3,0.9v19.8v19.8l9.5-3.4l9.5-3.4L138.2,136.3L138.2,136.3z M384.9,106.9
		c-0.4-0.4-1.8-1-3.2-1.3l-2.5-0.6v19.5v19.5l2.9,1.2l2.9,1.2l0.2-19.4C385.5,116.3,385.3,107.3,384.9,106.9L384.9,106.9z
		 M372.9,121.8c0-10.6-0.3-19.5-0.7-19.7c-0.4-0.2-2-0.7-3.7-1.1l-3-0.7l0.3,9.3c0.2,5.1,0.1,9.3-0.1,9.3c-0.2,0-2.2-4.5-4.3-9.9
		c-4.7-12.1-4.5-11.9-8.1-12.6l-2.9-0.7v19.4c0,10.7,0.3,19.6,0.7,19.8c0.4,0.2,1.8,0.7,3.2,1l2.5,0.6v-10.8c0-6,0.3-10.4,0.8-9.9
		c0.4,0.5,2.7,6,5.1,12.3c4.3,11.1,5.5,12.8,9.3,13C372.7,141.2,372.9,136.7,372.9,121.8z M143.4,138.3c2.5-0.9,2.9-1.6,3.9-6.4
		c0.9-4.9,1.3-5.4,3.8-5.9c4.1-0.8,4.1-0.8,4.7,2.9c0.9,5.4,1.4,5.9,5.3,4.8c1.8-0.5,3.4-1.2,3.4-1.4s-1.6-6.4-3.5-13.6
		c-1.9-7.2-4-15.3-4.7-18c-1.2-4.8-1.3-4.9-4-4.3c-1.5,0.3-3.1,0.9-3.4,1.2c-0.7,0.6-9.8,38.4-9.8,40.5
		C139.1,139.6,139.8,139.6,143.4,138.3z M150.3,117c0.3-1.6,0.6-3.5,0.6-4.3c0-2.3,1.5,0,2.1,3.2c0.4,2.4,0.2,3-1.3,3.4
		C149.9,119.8,149.8,119.5,150.3,117z M398.2,120.4c0.1-6.7-0.6-10.6-1.7-10.6c-0.3,0-1.4,0.5-2.3,1.2c-1.6,1.2-1.6,1.6-0.1,11.3
		c0.8,5.6,1.8,10.7,2.1,11.5C397,135.8,398.2,128,398.2,120.4L398.2,120.4z M343.9,114.1V94.3l-2.9-0.6c-1.6-0.3-2.9-0.5-3-0.3
		c-0.1,0.1-0.5,8.8-0.8,19.3l-0.6,19.1l3.4,0.9c1.9,0.5,3.5,1,3.6,1C343.8,133.8,343.9,124.9,343.9,114.1L343.9,114.1z M172.4,131.4
		c1.9-0.5,2-1,2.1-9.5l0.1-8.9l2.9,9c1.6,5,3.2,9.2,3.4,9.5c0.3,0.3,1.3-2.3,2.3-5.8c1-3.5,2.4-8.4,3.2-10.9l1.3-4.6l0.1,9.3
		l0.1,9.3l3.4-0.6l3.4-0.6l-0.3-19.4c-0.2-10.7-0.4-19.5-0.6-19.7c-0.1-0.2-1.6,0.1-3.3,0.5c-2.9,0.8-3.1,1.1-6.2,11.7l-3.2,10.9
		l-3.3-10c-3.3-9.9-3.3-10-5.9-9.7c-1.5,0.2-2.9,0.6-3.3,0.9c-0.3,0.3-0.8,9.2-0.9,19.8C167.6,133.5,167.4,132.7,172.4,131.4
		L172.4,131.4z M331.2,111.7c0-10.6-0.3-19.5-0.7-19.8c-0.4-0.2-1.9-0.6-3.4-0.7l-2.7-0.3l-0.3,7.2c-0.3,7.1-0.3,7.2-2.7,7.1
		c-6.1,0-6.4-0.4-6.7-8.6l-0.3-7.5l-2.9-0.3l-2.9-0.3v19.4c0,20.7-0.1,20.5,4.6,20.5c1.5,0,1.7-0.9,2-8.5l0.3-8.5l3.6,0.3
		c2,0.2,3.9,0.5,4.3,0.7c0.4,0.2,0.7,4.3,0.7,9.1v8.7l2.9,0.4c1.6,0.2,3.3,0.4,3.6,0.5C330.9,131,331.2,122.3,331.2,111.7
		L331.2,111.7z M215.9,125c5.9-2.5,8.5-11.6,4.9-17.5c-1.5-2.4-1.5-3.1-0.4-4.6c1.7-2.4,1.6-9.7-0.2-12.3c-2.2-3.2-5.4-4-12.8-3.3
		l-6.6,0.6v19.8v19.8l6.1-0.6C210.2,126.4,214.3,125.6,215.9,125z M207.4,118.7c-0.3-0.7-0.4-3.1-0.2-5.3c0.3-3.6,0.5-4.1,2.8-4.3
		c3.6-0.4,5.2,1.3,5.2,5.5c0,3-0.4,3.7-2.3,4.5C209.7,120.3,208,120.2,207.4,118.7z M207,98.3c0-3.5,0.3-4.1,2.2-4.6
		c3.1-0.8,5,0.2,5.6,2.8c0.7,3-1.9,5.9-5.2,5.9C207.2,102.4,207,102.2,207,98.3z M298.1,125.4c3.3-1.5,5.1-6.1,5.1-13v-6l-4.2-0.6
		c-6.6-0.9-6.7-0.9-6.7,2.6c0,2.6,0.3,3.2,1.8,3.2c2.6,0,2.7,7,0,7.8c-4.6,1.5-7.3-3.7-7.3-14.1c0-7.7,1.8-12.2,5-12.2
		c1.8,0,2.6,0.7,3.4,2.8c1,2.6,1.3,2.8,4.2,2.2c1.7-0.3,3.3-0.7,3.5-0.9c0.2-0.2-0.3-1.7-1-3.5c-4-9.7-15.7-10.4-19.7-1.2
		c-2.4,5.6-3.1,14.4-1.7,21.3c1.5,7.5,6.2,12.5,11.6,12.5C294.1,126.4,296.8,125.9,298.1,125.4L298.1,125.4z M242.9,123.7
		c4-2.5,6.1-7.6,6.5-16.3c0.7-14.1-3.7-22.5-11.8-22.5c-2.9,0-4.2,0.6-6.6,3.1c-4,4.1-5.2,9.3-4.8,20c0.3,7,0.7,9.4,2.3,12.1
		C231.9,125.5,237.7,127,242.9,123.7L242.9,123.7z M235.7,117.6c-4.6-4.7-3.8-23.9,1.1-25.8c5.8-2.3,8.5,19.6,3.2,25.5
		C238.2,119.4,237.5,119.4,235.7,117.6z M276.8,124.7c0-0.4-1.2-4.4-2.7-8.9l-2.7-8.1l2.8-3.3c2.5-3,2.8-3.7,2.4-8.2
		c-0.7-8.3-5.2-11.4-16.8-11.4l-5.7,0v19.9v19.9h3.6h3.6v-8.3c0-11.1,1.5-11.1,5.4-0.1c2.6,7.3,3.2,8.3,5.3,8.6
		C276.5,125.5,276.8,125.5,276.8,124.7L276.8,124.7z M261.4,96.6v-4.9l3.1,0.4c4,0.5,5.2,2,4.9,5.9c-0.3,2.9-0.5,3.1-4.1,3.3
		l-3.9,0.3V96.6z M115.5,104.9c0.1-1.2-3.1-0.7-5.3,0.8l-2.1,1.5l2.1,2.2l2.1,2.2l1.6-3C114.7,107,115.4,105.3,115.5,104.9z"/>
	<g id="g3060" transform="matrix(0.95536881,0,0,0.97325585,-276.43252,0.08142099)">
		<path id="path3028" class="st6" d="M539.2,418.8C472.5,368.6,431.3,307,412.2,229c-7.7-31.4-12.4-70.1-12.4-102.7
			c0-17.8,1.3-19.7,16.9-25.9C466.7,80.6,541,73.6,613.3,81.9c36.6,4.2,82.9,17.4,90.2,25.7c3,3.4,3.6,5.3,1.6,4.6
			c-0.7-0.2-2.2,0.3-3.4,1.3c-2.2,1.7-2.2,1.7-0.8,9.7c0.8,4.4,1.7,12.6,2.1,18.2c0.4,5.6,1,10.2,1.4,10.2c1.3,0,1.9-6.7,2.1-22.8
			l0.2-15.7L707,126c0.6,24.1-2.9,59.8-8.8,88.8c-11,54-32.3,100.7-64.6,141.3c-20.4,25.6-71.9,71.6-80.2,71.6
			C551.9,427.7,546.5,424.3,539.2,418.8L539.2,418.8z M562.1,420c12.4-8,24.5-18.2,38.4-32.3c19.2-19.4,30.2-32.3,34.1-39.8
			c1.2-2.3,1.1-2.7-0.5-4.2c-1.8-1.6-2.2-1.3-14.9,11.2c-15.9,15.7-26.8,24.5-26.8,21.6c0-1.7-12.3-8.7-19.6-11.1
			c-13.1-4.4-27.3-4-38.9,1.1l-4.9,2.2l-1.6-5.4c-4.5-15.2-7-35.4-4.6-37c0.6-0.4,2.2-3.3,3.7-6.6c1.9-4.2,4.1-7.1,7.6-10.1
			c3-2.6,5.3-5.4,5.8-7.3c0.9-3.1,5.1-7.1,6.9-6.4c1.5,0.5-1.9,7.3-6.2,12.3c-2.1,2.4-4.3,5.7-5,7.4c-1.1,2.7-1.1,3.3,0.3,4.6
			c1.4,1.4,1.6,1.4,2.2-0.3c0.6-1.7,0.8-1.6,1.3,0.5c0.7,3.1,3.6,3.5,8.8,1.1c3.7-1.6,4.2-2.3,4.8-5.6c0.3-2.1,1.3-4.3,2.1-5
			c1-0.8,1.4-2.5,1.3-5.1c-0.3-4,0.8-9.1,1.9-9.1c1.1,0,3.7,5.1,4.4,8.8c0.4,2,1.5,4.6,2.5,5.9c1.8,2.2,2.3,2.4,11.6,2.4h9.8
			l2.7-3.5c2.1-2.7,2.7-4.7,2.8-8.5c0.2-6.7,3.7-12.4,10.6-17.4l5.4-3.9l1.5,2c0.8,1.1,2.4,4.6,3.6,7.6c1.6,4.4,1.8,6.2,1.1,8.1
			c-0.5,1.4-1.1,5.1-1.3,8.3c-0.2,3.2-0.6,7.3-1,9.2c-0.5,3-0.3,3.7,2,5.5c3.3,2.6,4.1,2.6,5.1-0.1c0.6-1.5,0.9-1.7,0.9-0.5
			c0.1,2.7,2,3,4.5,0.6c2-1.9,2.3-2.8,1.8-6c-0.3-2.1-0.9-6.6-1.4-10c-0.4-3.4-1.1-6.9-1.5-7.9c-0.4-0.9-0.2-5.6,0.5-10.4
			c1.1-8.3,1.1-8.9-0.8-12.7c-2.8-5.5-2.6-6.3,1-4.5c4.1,2.1,13.3,2.9,16.9,1.3c3.1-1.3,6.6-5.1,6.6-7.2c0-0.9-1.1-1.1-4.5-0.7
			c-3.7,0.4-5,0.1-7.5-1.7c-1.6-1.2-4.7-3.5-6.9-5.1c-3.7-2.7-3.9-3-3.4-6.8c0.3-2.2-0.1-6.9-1-10.8c-0.9-3.8-1.3-8.2-1-9.8
			c0.3-1.6,1-5,1.5-7.5c1.3-6.3-0.3-12.7-4.7-19.4c-2-3-4.1-7.1-4.8-9.2s-2-5-3-6.4c-1.8-2.5-1.8-2.8-0.2-7.5
			c3-9.2-0.1-16.6-8.8-20.9c-4.2-2.1-6.1-2.3-27.8-2.9c-20.8-0.6-31.7-1.6-34.2-3.2c-1.8-1.1-0.8-4.3,1.6-5.4
			c2-0.9,3.7-0.7,10.7,1.6c8.8,2.9,18.1,3.5,23.2,1.5c3.4-1.3,2.6-2.5-2.1-3.3c-2.1-0.3-4-1-4.3-1.5c-0.8-1.3,1.2-1.2,8.5,0.5
			c5.9,1.4,11,1.1,11-0.5c0-1-8-4.3-14.8-6.1c-7.7-2-21.5-2-27.7,0.1c-5.8,1.9-12,6.9-12.9,10.4c-0.8,3.2,1.9,6.2,6.8,7.9
			c2,0.7,15.1,1.7,30.1,2.4c28.2,1.3,30.8,1.8,34.1,6.5c2.2,3.1,1.9,7.8-0.7,10.8c-2.2,2.5-2.3,2.5-7.4,1.4
			c-2.8-0.6-10.7-3-17.5-5.2c-9.6-3.1-13-3.8-15.2-3.2c-1.5,0.4-6,3.5-9.9,6.9c-3.9,3.4-11.3,8.3-16.4,11
			c-13.1,6.9-17.1,12.3-18.7,25c-0.9,7.2-2.5,10.9-9.1,21.3c-4.5,7.1-7,14.4-7,20c0,2.9-1.3,8.6-3.3,14.7
			c-2.8,8.4-3.3,11.2-3.3,18.4c0,7.1-0.4,9.1-2.4,13c-1.3,2.5-2.6,6.7-2.9,9.3c-0.9,7.8-1.1,8.3-6.1,14.2c-2.6,3.1-4.8,6.4-4.8,7.4
			c0,0.9-0.4,1.7-0.9,1.7c-1.6,0-5.7,7-5.7,9.7c0,3.6,1.8,4.3,3.9,1.6l1.8-2.3l-0.6,3.1c-0.5,2.7-0.3,3.1,1.4,3.1
			c1.4,0,2.8,1.4,4.5,4.5c10,17.6,32.2,43.4,48.7,56.8c8.4,6.8,19.8,14.6,21.4,14.6C555.6,423.9,558.8,422.1,562.1,420L562.1,420z
			 M497.5,332.4c0.5-1.4,0.9-4.6,0.8-7.2c-0.1-3.8,0.4-5.3,2.7-8.3c3.6-4.6,5.5-8.2,6.9-13.5c1.2-4.5,11.1-23.8,12.2-23.8
			c2,0,3,2.9,3,8.7c0,4.8,0.4,6.6,1.5,7.2c2.4,1.4-1,11-5.5,15.3c-5.7,5.6-8.6,8.1-11.4,9.8c-1.9,1.2-2.8,2.7-3.2,5.5
			c-0.3,2.1-1,3.8-1.4,3.8c-0.4,0-2.1,1.1-3.7,2.5l-2.9,2.5L497.5,332.4L497.5,332.4z M563,146.9c-1.2-0.8-1.1-0.9,0.5-0.9
			c1,0,2.8,0.4,3.8,0.9c1.7,0.7,1.7,0.8-0.5,0.9C565.5,147.8,563.8,147.4,563,146.9z M428.6,267.6c-1.8-5.6-5.1-17.9-7.4-27.3
			c-8-32.2-10.6-53.9-13.4-108.8c-0.5-9.3-1-12.6-2.4-14.9c-2.1-3.5-3.7-3.8-3.8-0.8c-1.2,38.9,5.2,88.5,16.2,124.7
			c4.8,15.7,12.5,37.3,13.4,37.3C431.6,277.8,430.4,273.2,428.6,267.6L428.6,267.6z M458.2,211.9c18.5-4.9,35.7-19.1,43.7-36.1
			c1-2.1,1.8-4,1.9-4.3s0.9-3,1.9-6.2c1.3-4.2,1.8-8.6,1.8-17.1c0-12.8-0.7-16.5-3.1-16.7c-0.9-0.1,0.8-0.5,3.8-0.9
			c10.3-1.5,14-5.2,14-14c0-3.2-0.6-5.4-1.8-6.9c-1.7-2.1-1.7-2.4-0.2-4c1-1.1,1.6-3.4,1.6-6.5c0-4.1-0.4-5.1-3.1-7.5
			c-3.3-2.9-7.5-3.5-15.6-2.2l-3.6,0.6v12.6c0,6.9-0.3,13.3-0.6,14.1c-0.3,0.8-1.6,1.5-2.8,1.5h-2.3v-13.8c0-13.6,0-13.8-2.1-13.7
			c-5.5,0-5.9,0.6-9.3,12.1l-3.2,11l-3.3-10.1l-3.3-10.1l-3.4,0.6c-1.8,0.3-3.7,0.8-4.1,1c-0.4,0.2-0.7,6.3-0.7,13.5V122l-2.5,0.6
			c-1.4,0.3-2.8,0.3-3.2-0.1c-0.4-0.4-2-5.8-3.6-12c-1.6-6.2-3.1-11.5-3.4-11.7c-0.2-0.2-1.9-0.1-3.8,0.2l-3.4,0.6l-2.5,10.6
			c-4.5,19.1-3.6,17.4-9.3,18.7c-2.7,0.6-6.4,1.7-8.1,2.4l-3.1,1.3v-12.9c0-11.4-0.2-12.8-1.5-12.3c-0.8,0.3-2.6,0.8-3.8,1.2
			l-2.3,0.6l0.4,21.5c0.4,23.7,1.6,32.3,7.7,54.3c4.6,16.8,8.8,27.3,11.3,28.4C436.2,214.6,451.3,213.7,458.2,211.9L458.2,211.9z
			 M446.7,120.7c0.3-0.8,0.6-2.4,0.6-3.5c0-2.6,1.5-1.1,2.3,2.4c0.5,2.2,0.3,2.6-1.4,2.6C446.7,122.2,446.3,121.8,446.7,120.7
			L446.7,120.7z M507,117.6c0-4,0.3-4.7,2.1-5.2c3.3-0.9,5.5,0.9,5.5,4.4c0,3.8-1.4,5.4-4.9,5.4C507.1,122.2,507,122,507,117.6z
			 M472.5,120.6c-0.3-0.3-0.6-1.3-0.6-2.1c0-1.2,0.2-1.2,1,0.2C474,120.5,473.7,121.8,472.5,120.6z M485.3,117.5
			c0-1.3,0.2-1.8,0.5-1.2c0.3,0.7,0.3,1.7,0,2.4C485.6,119.3,485.3,118.8,485.3,117.5z M507,100.9c0-4.2,0-4.3,3.3-4.3
			c3.3,0,3.9,0.8,3.4,4.7c-0.2,1.8-2.8,3.8-5,3.8C507.3,105.1,507,104.3,507,100.9z M690.1,186.8c2.7-6.6,6.7-30.7,6.7-39.7
			c0-3.4-0.7-6.9-1.9-9.3c-1.5-3.1-1.8-5.9-1.9-16.2l0-12.4l-3.3-1l-3.3-1l-0.3,11.5c-0.3,10.9-0.4,11.5-2.2,11.2
			c-4.3-0.6-4.3-0.6-4.3-13.3v-12.2l-3-0.6c-1.6-0.3-3.3-0.6-3.8-0.6c-0.5,0-0.8,4.2-0.9,9.2l0,9.3l-4.3-10.4
			c-2.4-5.7-4.6-10.7-4.9-11c-0.3-0.3-2-0.9-3.7-1.3l-3.1-0.6v12.4c0,12.3,0,12.4-2.2,12.4c-4,0-4.5-1.6-4.5-14.3
			c0-11.7-0.1-12-2.1-12.6c-5.6-1.5-5.5-1.7-5.5,12.3v12.9l-2.1-0.6c-1.2-0.3-2.5-0.6-2.8-0.6c-0.4,0-0.7-5.9-0.7-13.2V94l-3-0.6
			c-1.6-0.3-3.3-0.6-3.8-0.6c-0.5,0-0.8,3.4-0.8,7.6c0,8.2,0.1,8.1-5.5,7l-2.9-0.6l-0.3-7.7l-0.3-7.7l-3.6-0.3l-3.6-0.3v20.4v20.4
			l3.3,0.4c1.8,0.2,3.5,0.2,3.8-0.1c0.2-0.2,0.4-4.2,0.4-8.8c0-9.1-0.1-8.9,5.6-7.8l3,0.6l0.1,7.2c0.1,8,1.4,26.1,2.1,29.1
			c3.7,14.7,15.4,28.3,29.3,33.7c7.3,2.9,11.6,3.6,20.9,3.5C688.8,189.2,689.1,189.1,690.1,186.8L690.1,186.8z M664.1,124.8
			c-1-3.3-1.2-5.4-0.5-5c1.3,0.8,2.9,6.2,1.8,6.2C664.9,126,664.3,125.5,664.1,124.8z M602.6,128.3c3.1-2,4-5.1,4-12.7
			c0-7.2-0.4-7.6-7.8-7.6c-3.5,0-3.6,0-3.6,3.8c0,3.2,0.3,3.8,1.9,3.8c1.5,0,1.9,0.6,1.9,2.7c0,4-2.2,5.5-5.2,3.5
			c-3-2-3.8-5-3.8-13.9c0-10.9,4.2-15.9,7.9-9.4c1.4,2.5,2.1,2.8,4.9,2.6c3-0.2,3.3-0.5,3.1-2.9c-0.4-6.2-7.9-11.3-14.1-9.8
			c-3.7,0.9-7.6,5.5-8.8,10.4c-2.3,9.2-0.6,22,3.7,27.5C590.2,130.7,597.6,131.6,602.6,128.3z M544.8,126.5c4-3.4,6-9.1,6.2-17.5
			c0.2-13.9-4.2-21.8-12.1-21.8c-8.4,0-13.3,7.8-13.3,21.3c0,8.8,2.2,15.6,5.9,18.5C535,129.7,541.2,129.5,544.8,126.5L544.8,126.5z
			 M535.4,119.7c-0.9-1-1.4-4.7-1.6-10.7c-0.3-10.1,0.8-13.6,4.3-14.2c3.5-0.5,5.2,5.1,4.8,15.1c-0.4,8.5-1.5,11.2-4.6,11.2
			C537.4,121.3,536.1,120.6,535.4,119.7z M562.8,120.1c0.4-11.1,1.9-11,5.9,0.2l3.1,8.5h4.1c2.3,0,4.1-0.1,4.1-0.2
			c0-0.1-1.4-4.2-3.2-9.1l-3.1-8.9l2.7-2.7c2.2-2.2,2.7-3.5,2.7-7.5c0-9.8-3.3-12.6-15.4-13.2l-8.3-0.4v20.4c0,21.8,0,21.6,4.7,21.2
			C562.5,128.4,562.5,128.2,562.8,120.1L562.8,120.1z M563,99.4c0-4.7,0-4.7,3.1-4.7c3.8,0,5.4,1.4,5.4,4.7c0,3.3-1.6,4.7-5.4,4.7
			C563,104.2,563,104.2,563,99.4z M408.3,113.4c0-0.6,1.1-2.7,2.4-4.7c1.9-2.8,2.1-3.5,0.9-3.5c-1.6,0-9,3.5-9,4.3
			c0,0.3,0.9,1.7,2,3.3C406.7,115.4,408.3,115.7,408.3,113.4z M463.6,91.4c39.7-6.4,79.1-8.4,120.8-6.2c17,0.9,45.9,3.7,57.4,5.6
			c5,0.8,6.6,0.7,5.5-0.4c-0.8-0.8-23.1-5-34.9-6.5c-22.2-2.9-39.8-3.7-71.6-3.2c-33.1,0.5-47.1,1.7-68.8,6
			c-16.1,3.1-29.7,7.1-24.4,7.1C448.4,93.7,455.6,92.7,463.6,91.4z"/>
	</g>
</g>
</svg>
