<?xml version="1.0" encoding="UTF-8" standalone="no"?>
<svg
   xmlns:dc="http://purl.org/dc/elements/1.1/"
   xmlns:cc="http://creativecommons.org/ns#"
   xmlns:rdf="http://www.w3.org/1999/02/22-rdf-syntax-ns#"
   xmlns:svg="http://www.w3.org/2000/svg"
   xmlns="http://www.w3.org/2000/svg"
   xmlns:sodipodi="http://sodipodi.sourceforge.net/DTD/sodipodi-0.dtd"
   xmlns:inkscape="http://www.inkscape.org/namespaces/inkscape"
   width="700"
   height="700"
   viewBox="0 0 700.00001 700"
   version="1.1"
   id="svg1506"
   sodipodi:docname="peugeot-logo.svg"
   inkscape:version="0.92.3 (2405546, 2018-03-11)"
   inkscape:export-filename="C:\Users\alex\sites\peugeot-logo-0.png"
   inkscape:export-xdpi="561.73712"
   inkscape:export-ydpi="561.73712">
  <metadata
     id="metadata1510">
    <rdf:RDF>
      <cc:Work
         rdf:about="">
        <dc:format>image/svg+xml</dc:format>
        <dc:type
           rdf:resource="http://purl.org/dc/dcmitype/StillImage" />
        <dc:title></dc:title>
      </cc:Work>
    </rdf:RDF>
  </metadata>
  <sodipodi:namedview
     pagecolor="#ffffff"
     bordercolor="#666666"
     borderopacity="1"
     objecttolerance="10"
     gridtolerance="10"
     guidetolerance="10"
     inkscape:pageopacity="0"
     inkscape:pageshadow="2"
     inkscape:window-width="1600"
     inkscape:window-height="838"
     id="namedview1508"
     showgrid="false"
     inkscape:zoom="0.70710678"
     inkscape:cx="325.28714"
     inkscape:cy="347.09709"
     inkscape:window-x="-8"
     inkscape:window-y="-8"
     inkscape:window-maximized="1"
     inkscape:current-layer="svg1506" />
  <defs
     id="defs1494">
    <polygon
       id="path-1"
       points="0.0003747473,61.9999 0.0003747473,0.081 56.417,0.081 56.417,61.9999 " />
  </defs>
  <g
     id="•-AP/1.Atoms/6.Logo/mobile/NBi21"
     transform="matrix(8.1277757,0,0,8.1277757,80.085713,49.606351)"
     style="fill:none;fill-rule:evenodd;stroke:none;stroke-width:1"
     inkscape:export-filename="C:\Users\alex\sites\peugeot-logo-4.png"
     inkscape:export-xdpi="83.743195"
     inkscape:export-ydpi="83.743195">
    <g
       id="Group-8"
       transform="translate(5,5)">
      <g
         id="Group-3"
         transform="translate(0,0.9185)">
        <g
           id="Clip-2" />
        <path
           d="M 26.945,61.4129 C 19.057,57.7439 12.206,51.7309 7.653,44.4839 3.111,37.2579 0.724,28.8889 0.14,18.1439 -0.046,14.7159 -0.046,10.4399 0.139,5.0739 L 0.223,2.6249 2.64,2.2199 c 8.505,-1.419 17.108,-2.139 25.569,-2.139 8.461,0 17.063,0.72 25.567,2.139 l 2.417,0.405 0.085,2.449 c 0.186,5.367 0.186,9.643 -10e-4,13.07 -0.585,10.745 -2.971,19.114 -7.513,26.34 -4.552,7.247 -11.405,13.26 -19.292,16.929 l -1.263,0.587 z"
           id="Fill-1"
           mask="url(#mask-2)"
           inkscape:connector-curvature="0"
           style="fill:#000000" />
      </g>
    </g>
  </g>
  <g
     id="•-AP/1.Atoms/6.Logo/desktop/NBi21-white"
     transform="matrix(4.9022495,0,0,4.8848771,109.78673,88.294138)"
     style="fill:none;fill-rule:evenodd;stroke:none;stroke-width:1"
     inkscape:export-filename="C:\Users\alex\sites\peugeot-logo-4.png"
     inkscape:export-xdpi="83.743195"
     inkscape:export-ydpi="83.743195">
    <path
       d="M 49.000605,5 C 63.142443,5 77.82091,6.2073197 92.719812,8.7787409 92.942244,14.751428 93.194598,23.98358 92.770682,31.817676 91.82111,49.284367 87.97694,62.841499 80.668628,74.483296 73.383257,86.091141 62.102103,96.07225 49.000605,102 35.899106,96.07225 24.616955,86.091141 17.331584,74.483296 10.024269,62.841499 6.1791014,49.284367 5.2305269,31.817676 4.804616,23.98358 5.0579682,14.751428 5.2803994,8.7787409 20.179302,6.2073197 34.858766,5 49.000605,5 Z m 0,1.6826582 c -13.941352,0 -28.09516,1.1853502 -42.0893757,3.5250938 C 6.6040149,19.06842 6.6040149,26.118608 6.9092344,31.726803 7.8408522,48.895908 11.605227,62.198394 18.754944,73.588542 25.903665,84.977691 36.623254,94.385597 49.000605,100.14958 61.376958,94.385597 72.097544,84.977691 79.246265,73.588542 86.395983,62.198394 90.159359,48.895908 91.091975,31.726803 91.397194,26.118608 91.397194,19.06842 91.08998,10.207752 77.095764,7.8680084 62.940958,6.6826582 49.000605,6.6826582 Z M 48.878716,57.687772 c 0,0 0.275296,1.634724 0.359082,2.109064 0.04688,0.268627 0.05685,0.340526 -0.01097,0.604159 -0.219973,0.847714 -1.236346,5.316043 -2.049945,9.890082 l -0.126632,0.722583 c -0.332415,1.926496 -0.619559,3.838937 -0.786845,5.474946 -0.09476,0.929706 -0.06384,1.152396 0.181536,1.977248 0.695222,2.330756 3.266647,8.420281 3.760384,9.530735 0.05486,0.122829 0.08778,0.25165 0.103735,0.384465 v 0 l 0.185525,1.436002 c -0.823893,-1.245267 -5.300446,-9.480805 -7.05895,-14.041458 -0.207469,-0.537252 -0.247367,-0.801884 -0.01795,-1.78951 1.222874,-5.239707 4.531413,-14.143316 5.461036,-16.298316 z M 42.350409,45.030388 c 0,0 0.343994,1.115272 0.675699,2.326423 l 0.115982,0.429786 c 0.209571,0.789154 0.396448,1.568239 0.464108,2.061086 0.06484,0.47434 0.05386,0.602162 -0.114706,1.05653 -0.408773,1.088364 -1.160973,2.839038 -1.963379,4.628758 l -0.346107,0.767596 c -0.984503,2.171333 -1.98127,4.268952 -2.465305,5.17693 -0.23839,0.447378 -0.462817,0.738972 -0.911669,1.195337 -1.02438,1.043547 -2.985366,3.015802 -4.199262,4.119267 -0.440873,0.401441 -0.559569,0.743964 -0.64934,1.263242 -0.14463,0.833839 -0.288262,2.256859 -0.32816,2.991836 -0.03491,0.646101 0.06982,0.948679 0.4299,1.588789 2.139529,3.819683 9.282265,12.607453 11.317062,14.452885 0.147622,0.133813 0.255347,0.223688 0.566551,0.430401 0.299235,0.199722 1.274741,0.832841 1.274741,0.832841 0.0389,0.02696 0.07182,0.06291 0.09675,0.103855 v 0 l 0.353097,0.622134 c 0,0 -0.03299,-0.01636 -0.09251,-0.04595 l -0.152474,-0.07585 c -0.122669,-0.06107 -0.28482,-0.141914 -0.471115,-0.235059 L 45.49684,88.494031 C 44.801714,88.144957 43.97306,87.725007 43.537374,87.490294 43.357833,87.393429 43.189264,87.279587 43.032665,87.148769 40.649758,85.167527 33.347431,76.61443 31.199922,73.0434 c -0.535631,-0.891759 -0.59049,-1.180357 -0.518674,-2.024182 0.134656,-1.570814 0.343123,-3.546065 0.525656,-4.41186 0.110717,-0.522273 0.225424,-0.828847 0.625401,-1.290205 1.344096,-1.548622 2.983573,-3.593064 4.581138,-5.690813 L 36.975,58.884465 c 2.421113,-3.218139 4.651372,-6.439197 5.484131,-8.080113 0.190513,-0.37348 0.206473,-0.5033 0.210462,-0.855809 0.01097,-1.022577 -0.315194,-3.013806 -0.400974,-3.517105 -0.01297,-0.07889 -0.01696,-0.158779 -0.01,-0.238668 v 0 z m 19.92944,-1.919229 0.617421,0.268626 c 0.182533,0.07889 0.349107,0.194729 0.486755,0.338529 3.785321,3.954496 6.81258,8.054789 7.41903,9.135286 0.116701,0.20771 0.196497,0.415421 0.225423,0.653091 0.680261,5.766974 0.09575,11.876471 -1.293692,17.191074 -0.125678,0.479333 -0.266319,0.724991 -0.727141,1.071509 -1.483388,1.116854 -3.697723,2.897726 -5.899854,4.713423 l -0.694137,0.573802 c -2.65266,2.198384 -5.172807,4.350747 -6.242186,5.340983 -0.268314,0.249652 -0.502714,0.53126 -0.694225,0.843826 -0.501486,0.815864 -1.267173,2.219938 -1.643116,2.91684 l -0.105001,0.195056 c -0.07543,0.140439 -0.119108,0.222463 -0.119108,0.222463 -0.498725,-1.089484 -1.585945,-3.747784 -1.958991,-4.822289 -0.121688,-0.350512 -0.143632,-0.534256 -0.01496,-1.003603 0.608444,-2.227899 3.484091,-8.704885 4.04366,-9.876255 v 0 l 9.97e-4,0.479333 c 0,0.0699 -0.01097,0.138807 -0.03292,0.204715 -0.252354,0.765934 -1.798401,5.87083 -2.112598,8.084748 -0.06982,0.492315 -0.06384,0.62513 0,1.108458 0.137648,1.033561 0.75507,2.928923 0.75507,2.928923 0,0 0.366064,-0.764935 0.707191,-1.282215 0.167572,-0.253647 0.268314,-0.375478 0.541615,-0.6471 1.382497,-1.36872 3.740977,-3.484301 6.197579,-5.611745 l 0.869681,-0.750159 c 1.886943,-1.621224 3.77087,-3.198821 5.259221,-4.404112 0.38701,-0.313564 0.53164,-0.523272 0.617421,-1.118443 0.426909,-2.93192 0.550592,-8.194596 0.29325,-12.024266 -0.04887,-0.722993 -0.283275,-1.42202 -0.690235,-2.022185 -0.933613,-1.381078 -2.049758,-2.688259 -3.74243,-4.366922 -0.241383,-0.240666 -0.405962,-0.548237 -0.467804,-0.883771 -0.493738,-2.63633 -1.595919,-7.45762 -1.595919,-7.45762 z M 30.269501,49.21067 c 0.235398,-0.0759 0.485758,-0.08488 0.725146,-0.02696 1.07924,0.259639 3.363399,0.819859 5.089984,1.262244 0.242381,0.06191 0.544608,0.288598 0.673279,0.503299 v 0 l 0.376038,0.626129 c 0.131664,0.219694 0.140641,0.489319 0.02394,0.717002 -0.313864,0.609057 -0.761481,1.433759 -1.234713,2.284134 l -0.358037,0.639626 c -0.659011,1.170589 -1.315338,2.299922 -1.687861,2.894143 -0.245373,0.392453 -0.382023,0.566212 -0.818906,0.720996 -1.698657,0.598168 -3.808262,1.313173 -5.062056,1.719607 -0.256345,0.08288 -0.343123,0.238668 -0.293251,0.523272 0.08977,0.518278 0.379031,2.277829 0.489748,2.791115 0.0409,0.189736 0.192508,0.340526 0.473789,0.286601 0.741105,-0.140804 2.71406,-0.624131 2.71406,-0.624131 0,0 -0.581513,0.538251 -0.929623,0.855809 -0.06384,0.05992 -0.137648,0.103855 -0.220436,0.130818 -0.537626,0.17975 -1.850269,0.548237 -2.259224,0.638112 -0.319183,0.0689 -0.522663,-0.05692 -0.604454,-0.418418 0,0 -0.559569,-2.384681 -0.762051,-3.195553 -0.03192,-0.123827 -0.06384,-0.230679 -0.102738,-0.352509 -0.151612,-0.469347 -0.515681,-1.392063 -0.721156,-1.87539 -0.02394,-0.05592 -0.03591,-0.115839 -0.03497,-0.177753 0.006,-0.552231 0.107782,-1.784516 0.107782,-1.784516 0,0 1.207911,1.133423 1.792417,1.542853 0.131663,0.09287 0.210462,0.111844 0.372048,0.0709 0.802947,-0.206712 2.649226,-0.817862 3.662635,-1.197334 0.231408,-0.08688 0.43389,-0.232676 0.591487,-0.42341 1.04832,-1.267237 2.362958,-3.238493 3.122017,-4.725424 0.104733,-0.204715 0.124682,-0.439388 0.05885,-0.659082 v 0 L 35.289663,51.4176 c -0.04788,-0.15778 -0.214452,-0.335533 -0.368059,-0.394451 -1.786432,-0.680053 -3.19483,-1.18535 -4.849599,-1.749565 v 0 z M 65.599859,33.862331 c 0.392996,-0.144799 0.823894,-0.134813 1.209907,0.02796 2.994343,1.258249 8.029468,4.218129 10.828311,6.303227 0.270309,0.20172 0.378033,0.340526 0.448852,0.666073 0.657319,2.991836 0.906682,7.6164 0.49274,11.509981 -0.02992,0.279611 -0.08578,0.447378 -0.231408,0.745962 -1.773465,3.629948 -3.769361,7.046194 -5.86999,9.681526 v 0 l 0.0042,-0.04311 c 0.02734,-0.280624 0.178117,-1.862967 0.186278,-2.719048 9.97e-4,-0.09687 0.04588,-0.185741 0.122686,-0.24466 0.390003,-0.303577 0.925633,-0.734977 1.228858,-0.997611 0.147622,-0.127822 0.229413,-0.223689 0.306217,-0.347516 0.855811,-1.384074 2.385899,-4.282041 3.002323,-6.025614 0.150615,-0.425408 0.210462,-0.875781 0.173556,-1.326154 -0.197495,-2.429619 -0.578521,-5.795934 -1.14607,-7.992876 -0.09675,-0.374479 -0.344119,-0.691039 -0.68824,-0.867793 -0.489747,-0.251649 -1.450291,-0.690039 -3.637698,-1.567818 -0.303224,-0.12183 -0.5865,-0.290595 -0.835863,-0.500303 -1.434332,-1.206322 -3.676598,-3.014805 -5.07203,-4.055356 -0.407957,-0.304576 -0.928625,-0.415422 -1.425355,-0.302579 -1.016401,0.230679 -2.310093,0.552231 -3.038231,0.749956 -0.247368,0.06691 -0.345118,0.0729 -0.600465,0.04294 -0.132993,-0.01544 -0.304856,-0.03231 -0.485401,-0.04874 l -0.273554,-0.02409 c -0.317939,-0.02718 -0.616241,-0.05018 -0.73312,-0.05906 l -0.05198,-0.0039 c 2.372932,-1.115447 4.656094,-2.078108 6.085439,-2.601379 z M 33.940614,53.500599 c -0.742103,1.222299 -1.628835,2.520492 -2.299121,3.331364 -0.08778,0.105852 -0.204477,0.187738 -0.337138,0.237669 -0.733126,0.274618 -1.955001,0.688042 -2.854701,0.96266 v 0 z m -9.807921,-1.604766 -0.43788,3.02479 -1.489192,-1.749565 c 0.271306,-0.588182 1.064278,-1.143409 1.927072,-1.275225 z m 8.021389,-17.124967 -0.406959,0.501303 c -0.02294,0.02197 -0.04489,0.04294 -0.06783,0.06591 -0.358084,0.264632 -1.86523,1.420024 -2.273187,1.743573 -0.115704,0.09187 -0.161587,0.171761 -0.188518,0.31656 -0.09177,0.511288 -0.244375,1.482936 -0.289261,2.021187 -0.01297,0.15778 -0.08079,0.235672 -0.241382,0.300581 -0.699212,0.284604 -1.528093,0.584187 -2.198379,0.852813 -0.143633,0.05692 -0.183531,0.07889 -0.268314,0.1438 -0.06683,0.05193 -0.957551,0.84782 -0.957551,0.84782 0,0 1.936049,-0.477335 2.646233,-0.638112 0.169566,-0.03795 0.24238,-0.02796 0.39898,0.04594 0.146625,0.06791 0.391,0.164771 0.519671,0.211706 0.197495,0.0729 0.302227,0.0699 0.520669,0.02197 0.799954,-0.178751 2.145513,-0.498306 2.861682,-0.685046 0.372049,-0.09687 0.575529,-0.197725 0.890723,-0.418418 0.343122,-0.238668 1.211901,-0.89076 1.211901,-0.89076 0,0 -0.01596,0.11484 -0.02793,0.178751 -0.009,0.05492 -0.02893,0.08588 -0.06483,0.128821 -0.176549,0.212704 -0.485758,0.559221 -0.639365,0.718001 -0.3521,0.364492 -0.562562,0.494311 -1.004432,0.679054 -2.034797,0.848819 -5.511906,2.166984 -8.120236,3.070727 -0.170564,0.05992 -0.244375,0.108848 -0.371051,0.238667 -0.137648,0.139806 -0.321179,0.343522 -0.321179,0.343522 0,0 2.126562,0.154785 2.775902,0.229681 0.210462,0.02397 0.361077,0.09287 0.521666,0.231677 0.533635,0.459361 2.300118,2.279827 2.828767,2.911948 0,0 -5.022158,0.835836 -7.349208,1.414032 -0.287265,0.0709 -0.430898,0.253647 -0.495732,0.484326 -0.192508,0.677057 -0.646348,2.854028 -0.646348,2.854028 0,0 -0.161586,-0.05193 -0.38701,-0.181748 -0.154605,-0.08888 -0.233403,-0.162773 -0.40297,-0.342523 -0.550592,-0.58219 -1.455278,-1.696639 -1.890166,-2.342739 -0.127674,-0.190735 -0.181536,-0.433397 -0.02194,-0.628126 0.471793,-0.581191 1.41937,-1.641715 1.942034,-2.186957 0.05586,-0.05892 0.126676,-0.161774 0.201485,-0.309569 0.175862,-0.3497 0.407696,-1.235362 0.48845,-1.555191 l 0.02579,-0.103424 v 0 l 0.0034,-0.01406 c 0,0 -0.005,0.0031 -0.014,0.0088 l -0.09546,0.06009 c -0.129373,0.08144 -0.338394,0.213037 -0.428164,0.269625 -0.134656,0.08588 -0.171562,0.122829 -0.227419,0.240665 -0.08478,0.177753 -0.233403,0.458362 -0.346115,0.653091 -0.03691,0.06391 -0.135653,0.162774 -0.188518,0.203717 -0.667293,0.51029 -1.404409,1.058527 -1.929067,1.428012 -0.03591,0.02497 -0.08179,0.01398 -0.112712,-0.01598 -0.06683,-0.06691 -0.347112,-0.385464 -0.396985,-0.46036 -0.04189,-0.06291 -0.0609,-0.12183 -0.0609,-0.197725 -9.44e-4,-0.132815 0.01202,-0.366489 0.02499,-0.540248 0.01596,-0.205713 0.07481,-0.303577 0.325169,-0.563216 0.280283,-0.290595 0.585502,-0.59617 0.906681,-0.909734 0.786988,-0.663077 2.773907,-2.276831 6.321835,-4.811304 0.06683,-0.04793 0.127674,-0.103855 0.176549,-0.170762 0.373046,-0.503299 1.431339,-1.877387 1.692671,-2.203932 0.03691,-0.04594 0.0778,-0.08888 0.124681,-0.125825 0.417932,-0.33054 0.624404,-0.473342 1.04832,-0.740969 0.988472,-0.623133 2.902578,-1.759551 3.974836,-2.383683 z m 21.624904,-1.123935 c 0.14862,-0.02596 0.30123,-0.005 0.43788,0.05992 v 0 l 1.03635,0.496309 c 0.10174,0.04893 0.176549,0.141803 0.20348,0.253647 0.14064,0.593175 0.313199,1.379081 0.428903,2.047151 0.04688,0.277614 -0.005,0.561219 -0.145627,0.805879 -0.428904,0.745961 -1.309652,2.088094 -1.802391,2.80909 -0.10972,0.161775 -0.122687,0.357503 -0.08877,0.550234 0.223429,1.23628 1.155047,5.553272 1.155047,5.553272 v 0 l -0.5865,-0.534257 c -0.116702,-0.10785 -0.193505,-0.221691 -0.243378,-0.370484 -0.416934,-1.221301 -1.196939,-3.77275 -1.556021,-5.014022 -0.05785,-0.204715 -0.01396,-0.423411 0.120691,-0.586184 0.611437,-0.742966 1.502159,-1.931312 2.022828,-2.684264 0.145627,-0.211706 0.193505,-0.445381 0.107724,-0.620137 -0.119694,-0.245658 -0.321178,-0.619139 -0.514684,-0.957667 -0.05187,-0.09387 -0.138645,-0.163773 -0.241382,-0.197725 v 0 l -0.703206,-0.22569 c -0.122687,-0.03895 -0.25435,-0.03695 -0.376039,0.007 -1.532082,0.556226 -3.592813,1.35811 -4.853589,1.881382 -0.184528,0.07689 -0.260334,0.08288 -0.483763,0.04893 -0.365066,-0.05392 -1.428348,-0.24466 -1.950014,-0.342524 -0.09376,-0.01797 -0.14064,-0.123827 -0.09276,-0.206712 v 0 l 0.618418,-1.072507 c 0.08379,-0.144799 0.222432,-0.247656 0.386013,-0.284604 1.988915,-0.453369 4.619189,-0.974644 7.120792,-1.416029 z m -22.008922,4.925345 c 0.09476,-0.008 0.184528,0.04494 0.221434,0.131816 0.124681,0.290596 0.09077,0.615144 -0.02992,0.892758 -0.04688,0.112843 -0.19151,0.22269 -0.310207,0.248654 v 0 l -0.992462,0.220692 c -0.05985,0.01298 -0.114706,-0.03495 -0.110717,-0.09587 v 0 l 0.09276,-1.166377 c 0.007,-0.07889 0.06882,-0.141802 0.147623,-0.147794 v 0 z M 43.062788,31.0778 c 0.114707,-9.93e-4 0.186523,0.122835 0.129668,0.221698 v 0 l -2.419812,4.171194 c -0.134656,0.245658 -0.360079,0.428404 -0.627396,0.509292 v 0 l -4.537397,1.421022 c -0.526654,0.159777 -0.971516,0.245658 -1.520113,0.2876 -1.006427,0.07589 -3.995783,0.169763 -3.995783,0.169763 v 0 l 0.06583,-0.141802 c 0.03092,-0.06691 0.08578,-0.119834 0.153607,-0.148793 v 0 l 1.414383,-0.601164 c 0.10573,-0.04494 0.198493,-0.113841 0.269312,-0.202718 v 0 l 2.184414,-2.692252 c 0.116702,-0.1438 0.269311,-0.281609 0.431895,-0.367489 1.44331,-0.759942 4.009747,-1.901354 5.807151,-2.502517 0.169567,-0.05692 0.397983,-0.09287 0.576526,-0.09487 v 0 z m -2.425797,-4.843852 c 5.007196,-0.440387 11.78287,-0.560221 18.25532,-0.0699 0.368059,0.02796 0.726143,0.11484 1.066273,0.25864 2.120578,0.892757 5.882957,2.846039 10.06626,5.241705 0.184529,0.105852 0.358085,0.22968 0.517677,0.370484 1.108166,0.977639 3.915986,3.853637 3.915986,3.853637 v 0 l -0.87576,-0.173758 c -0.122687,-0.02397 -0.237393,-0.0719 -0.341128,-0.141803 -1.77147,-1.191342 -4.357857,-2.742183 -6.525314,-3.835662 -0.257342,-0.12882 -0.535631,-0.211705 -0.821899,-0.241663 -1.054304,-0.112843 -2.479659,-0.211706 -3.412274,-0.249653 -0.459825,-0.01897 -0.773024,-0.09587 -1.222873,-0.324548 -0.859802,-0.436393 -2.942476,-1.382077 -3.979824,-1.778525 -0.443865,-0.169764 -0.670286,-0.209708 -1.105174,-0.202718 -1.782442,0.02596 -5.843059,0.155783 -7.916756,0.284604 -0.07182,0.004 -0.140641,9.99e-4 -0.210462,-0.01 v 0 l -0.988472,-0.154785 c 2.802833,-0.483327 9.731116,-1.101467 12.598784,-1.252257 v 0 L 58.490339,27.41729 c -0.225424,-0.0749 -0.459824,-0.114841 -0.698215,-0.120832 -0.622538,-0.01485 -2.006887,-0.04254 -3.803908,-0.04497 l -0.613813,1.81e-4 c -2.721933,0.0053 -6.223937,0.07214 -9.453809,0.315408 -0.282278,0.02097 -0.557574,0.08888 -0.816911,0.203717 -1.304664,0.573701 -4.486091,2.30061 -7.676776,4.074423 l -0.708435,0.394503 c -0.824913,0.460105 -1.641151,0.917854 -2.416169,1.35397 0,0 0.397982,-0.512287 0.474786,-0.612148 0.06783,-0.08688 0.08877,-0.102857 0.180538,-0.162774 0.128206,-0.08415 0.565949,-0.372814 1.007267,-0.665721 l 0.326877,-0.217346 c 0.26499,-0.176569 0.501496,-0.335237 0.634822,-0.427109 0.06583,-0.04494 0.107724,-0.07689 0.190512,-0.138807 0.960544,-0.724991 2.476667,-2.003212 3.380357,-2.79511 0.204477,-0.178751 0.378033,-0.386462 0.520668,-0.61814 0.292253,-0.473341 0.611437,-0.986627 0.807934,-1.271231 0.167572,-0.246656 0.45384,-0.419416 0.810927,-0.451371 z M 19.314015,14.716078 c 1.236837,-0.127822 1.92807,0.353508 1.92807,1.606763 v 0 0.693036 c 0,1.282215 -0.691233,1.800494 -1.92807,1.929315 -1.710626,0.178751 -3.421252,0.372481 -5.128885,0.582189 v 0 1.894364 c -0.358085,0.04394 -0.717167,0.08788 -1.075251,0.133814 v 0 -6.122479 c 2.065718,-0.261636 4.133431,-0.500304 6.204136,-0.717002 z m 57.404613,-0.198524 c 2.727027,0.26563 5.452059,0.571205 8.172104,0.914727 v 0 0.987625 c -1.175993,-0.148793 -2.353981,-0.290595 -3.532966,-0.424409 v 0 5.135852 c -0.358085,-0.04094 -0.716169,-0.08089 -1.076248,-0.120832 v 0 -5.135852 C 79.09555,15.743847 77.90659,15.621018 76.718628,15.505179 v 0 z m -45.30216,-0.80468 v 0.986627 c -2.243264,0.138807 -4.48553,0.303577 -6.725802,0.494312 v 0 1.507901 c 1.992904,-0.170762 3.986806,-0.319555 5.981705,-0.447377 v 0 0.987625 c -1.994899,0.127822 -3.988801,0.276615 -5.981705,0.446379 v 0 1.654697 c 2.240272,-0.191733 4.482538,-0.356504 6.725802,-0.494312 v 0 0.986627 c -2.594366,0.159777 -5.186737,0.355505 -7.778111,0.586184 v 0 -6.123478 c 2.591374,-0.230679 5.183745,-0.425407 7.778111,-0.585185 z m 34.889885,1.677166 c 0,-1.373089 0.68026,-1.655696 2.21334,-1.551841 1.346557,0.09287 2.691119,0.193731 4.036678,0.305575 1.331595,0.109847 2.210348,0.484326 2.210348,1.885376 v 0 2.734195 c 0,1.375086 -0.759059,1.622741 -2.210348,1.502908 -1.345559,-0.110846 -2.690121,-0.212704 -4.036678,-0.304576 -1.46625,-0.09886 -2.21334,-0.382468 -2.21334,-1.837443 v 0 z M 55.873929,13.254412 c 2.597359,0.06191 5.193719,0.159778 7.79008,0.293591 v 0 0.986627 C 61.419748,14.41979 59.174489,14.330914 56.928233,14.269 v 0 1.506903 c 1.997891,0.05592 3.994785,0.131816 5.990682,0.228681 v 0 0.987626 c -1.995897,-0.09687 -3.992791,-0.173758 -5.990682,-0.228682 v 0 1.653699 c 2.246256,0.06191 4.491515,0.15079 6.735776,0.266628 v 0 0.986627 c -2.596361,-0.132815 -5.192721,-0.230679 -7.79008,-0.293591 v 0 z m -13.51534,-0.0054 v 4.428837 c 0,1.40105 -0.735121,1.708622 -2.216333,1.754558 -1.289702,0.03994 -2.579405,0.08788 -3.869107,0.145797 -1.374485,0.06191 -2.214338,-0.199722 -2.214338,-1.586792 v 0 -4.428836 0 l 1.053307,-0.05392 v 4.615576 c 0,0.28061 0.240385,0.509291 0.559569,0.494312 1.690677,-0.07889 3.380357,-0.142801 5.071033,-0.191733 0.321179,-0.009 0.534633,-0.254645 0.534633,-0.535255 v 0 -4.615576 c 0.36008,-0.01 0.720159,-0.01897 1.081236,-0.02696 z m 25.561637,1.536861 c -0.320181,-0.02197 -0.560566,0.202718 -0.560566,0.523272 v 0 3.027786 c 0,0.28061 0.240385,0.5752 0.560566,0.597169 1.746534,0.115839 3.491073,0.247656 5.235612,0.39545 0.279286,0.02397 0.558572,-0.232676 0.558572,-0.512287 v 0 -3.028785 c 0,-0.319555 -0.279286,-0.584187 -0.558572,-0.608154 -1.744539,-0.147794 -3.489078,-0.27961 -5.235612,-0.394451 z M 47.016378,13.178717 c 1.93605,-0.01398 3.872099,-0.007 5.807151,0.01897 v 0 0.986627 c -2.06871,-0.02696 -4.138418,-0.03295 -6.208125,-0.01598 -0.280284,0.003 -0.560567,0.245658 -0.560567,0.526268 v 0 3.06773 c 0,0.280609 0.280283,0.558223 0.560567,0.555227 1.856253,-0.01598 3.711509,-0.01298 5.567763,0.008 v 0 -1.654697 c -1.077246,-0.01198 -2.154491,-0.01797 -3.230739,-0.01698 v 0 -0.987626 c 1.428347,0 2.856695,0.01098 4.285043,0.03196 v 0 3.627951 c -2.006869,-0.02996 -4.013737,-0.03795 -6.020605,-0.02596 -1.469243,0.01 -2.216333,-0.243661 -2.216333,-1.671674 v 0 -2.668286 c 0,-1.333145 0.667294,-1.771535 2.015845,-1.781521 z m -27.299943,2.490392 -0.08324,0.0016 c -1.817353,0.187739 -3.633709,0.392454 -5.448069,0.615144 v 0 2.253863 c 1.81436,-0.221692 3.630716,-0.427405 5.448069,-0.614145 0.278288,-0.02996 0.557574,-0.284604 0.557574,-0.551233 v 0 -1.240274 c 0,-0.280609 -0.279286,-0.492315 -0.557574,-0.463355 z"
       id="Combined-Shape"
       inkscape:connector-curvature="0"
       style="fill:#ffffff" />
  </g>
</svg>
